<?xml version="1.0" encoding="utf-8"?>
<!-- Generator: Adobe Illustrator 28.5.0, SVG Export Plug-In . SVG Version: 9.03 Build 54727)  -->
<svg version="1.1" id="Layer_1" xmlns="http://www.w3.org/2000/svg" xmlns:xlink="http://www.w3.org/1999/xlink" x="0px" y="0px"
	 viewBox="0 0 792 612" style="enable-background:new 0 0 792 612;" xml:space="preserve">
<style type="text/css">
	.st0{fill:#F4F8F9;}
	.st1{fill:#F9F9FA;}
</style>
<g>
	<path class="st0" d="M129.07,285.3c-21.41,0-38.76-17.35-38.76-38.76c0-21.41,17.35-38.76,38.76-38.76s38.76,17.35,38.76,38.76
		C167.83,267.95,150.48,285.3,129.07,285.3 M129.07,206.36c-22.19,0-40.18,17.99-40.18,40.18c0,22.19,17.99,40.18,40.18,40.18
		s40.18-17.99,40.18-40.18C169.25,224.35,151.26,206.36,129.07,206.36"/>
	<path class="st0" d="M129.07,267.67c-11.67,0-21.12-9.46-21.12-21.12s9.46-21.12,21.12-21.12s21.12,9.46,21.12,21.12
		S140.74,267.67,129.07,267.67 M129.07,224.05c-12.42,0-22.49,10.07-22.49,22.49s10.07,22.49,22.49,22.49s22.49-10.07,22.49-22.49
		S141.49,224.05,129.07,224.05"/>
	<path class="st0" d="M129.07,263.72c-9.49,0-17.18-7.69-17.18-17.18s7.69-17.17,17.18-17.17s17.18,7.69,17.18,17.17
		S138.56,263.72,129.07,263.72 M129.07,228.27c-10.09,0-18.27,8.18-18.27,18.27c0,10.09,8.18,18.27,18.27,18.27
		c10.09,0,18.27-8.18,18.27-18.27C147.35,236.45,139.17,228.27,129.07,228.27"/>
	<path class="st0" d="M129.07,259.99c-7.43,0-13.45-6.02-13.45-13.45s6.02-13.45,13.45-13.45c7.43,0,13.45,6.02,13.45,13.45
		S136.5,259.99,129.07,259.99 M129.07,231.3c-8.42,0-15.24,6.82-15.24,15.24c0,8.42,6.82,15.24,15.24,15.24s15.24-6.82,15.24-15.24
		C144.31,238.13,137.49,231.3,129.07,231.3"/>
	<path class="st0" d="M129.07,257.7c-6.16,0-11.15-4.99-11.15-11.15s4.99-11.15,11.15-11.15c6.16,0,11.15,4.99,11.15,11.15
		S135.23,257.7,129.07,257.7 M129.07,233.85c-7.01,0-12.69,5.68-12.69,12.69s5.68,12.69,12.69,12.69c7.01,0,12.69-5.68,12.69-12.69
		S136.08,233.85,129.07,233.85"/>
	<path class="st0" d="M159.46,254.77l-1.03-0.49c-1.6-0.76-3.41-0.56-4.78,0.37c0.52-1.58,0.89-3.23,1.1-4.92
		c0.84,1.72,2.67,2.85,4.69,2.69l1.14-0.09c1.52-0.12,2.82-0.95,3.62-2.13c-0.31,3.01-1,5.9-2.01,8.64
		C162.08,257.15,161.09,255.55,159.46,254.77 M159.4,260.88l-1.23,2.56c-0.68,1.43-2.41,2.04-3.85,1.36l-0.49-0.23
		c-1.43-0.68-2.04-2.42-1.36-3.85l1.23-2.56c0.68-1.43,2.42-2.04,3.85-1.36l0.49,0.23C159.48,257.72,160.09,259.45,159.4,260.88
		 M151.6,273.74c0.75-1.51,0.69-3.38-0.33-4.87l-0.65-0.94c-1-1.46-2.68-2.19-4.34-2.07c1.26-1.12,2.41-2.37,3.43-3.72
		c-0.13,1.91,0.89,3.81,2.71,4.68l1.03,0.49c1.38,0.66,2.91,0.6,4.19-0.03C155.91,269.68,153.88,271.85,151.6,273.74 M148.17,274.12
		l-2.34,1.61c-1.31,0.9-3.11,0.56-4.01-0.75l-0.31-0.45c-0.9-1.31-0.56-3.11,0.75-4.01l2.34-1.61c1.31-0.9,3.11-0.56,4.01,0.75
		l0.31,0.45C149.82,271.42,149.48,273.23,148.17,274.12 M135.19,281.32c1.13-0.88,1.87-2.25,1.87-3.79v-1.14
		c0-2.01-1.25-3.74-3.02-4.46c1.77-0.35,3.48-0.87,5.1-1.55c-1.06,1.59-1.12,3.73,0.02,5.4l0.65,0.94c0.87,1.26,2.24,1.98,3.66,2.07
		C140.86,279.96,138.09,280.82,135.19,281.32 M134.41,277.24c0,1.59-1.3,2.88-2.88,2.88h-2.84c-1.59,0-2.88-1.3-2.88-2.88v-0.54
		c0-1.59,1.3-2.88,2.88-2.88h2.84c1.59,0,2.88,1.3,2.88,2.88V277.24z M116.77,279.65c1.69-0.1,3.29-1.09,4.07-2.72l0.49-1.03
		c0.76-1.6,0.56-3.41-0.38-4.78c1.51,0.5,3.07,0.86,4.69,1.07c-1.48,0.82-2.48,2.4-2.48,4.2v1.14c0,1.76,0.96,3.31,2.39,4.14
		C122.49,281.38,119.55,280.68,116.77,279.65 M114.74,276.88l-2.56-1.23c-1.43-0.68-2.04-2.41-1.36-3.85l0.24-0.49
		c0.69-1.43,2.42-2.04,3.85-1.36l2.56,1.23c1.43,0.68,2.04,2.42,1.36,3.85l-0.24,0.49C117.9,276.95,116.17,277.56,114.74,276.88
		 M108.8,269.9l-0.49,1.03c-0.66,1.38-0.59,2.92,0.03,4.19c-2.4-1.74-4.57-3.78-6.45-6.05c1.51,0.75,3.38,0.69,4.87-0.33l0.94-0.65
		c1.46-1,2.19-2.68,2.07-4.34c1.12,1.26,2.37,2.41,3.72,3.43C111.56,267.06,109.67,268.08,108.8,269.9 M101.49,265.64l-1.61-2.34
		c-0.9-1.31-0.56-3.11,0.75-4.01l0.45-0.31c1.31-0.9,3.11-0.56,4.01,0.75l1.61,2.34c0.9,1.31,0.56,3.11-0.75,4.01l-0.45,0.31
		C104.19,267.29,102.39,266.95,101.49,265.64 M96.82,260.94c-1.19-2.67-2.07-5.52-2.57-8.49c0.93,1.41,2.59,2.3,4.39,2.16l1.14-0.09
		c1.76-0.14,3.23-1.22,3.95-2.72c0.35,1.67,0.85,3.28,1.5,4.81c-1.59-1.06-3.73-1.12-5.4,0.02l-0.94,0.65
		C97.63,258.15,96.91,259.52,96.82,260.94 M99.28,251.9l-0.54,0.04c-1.58,0.12-2.97-1.07-3.1-2.65l-0.22-2.83
		c-0.12-1.58,1.07-2.98,2.65-3.1l0.54-0.04c1.58-0.12,2.97,1.07,3.1,2.65l0.22,2.83C102.05,250.39,100.86,251.78,99.28,251.9
		 M95.97,234.24c0.1,1.69,1.09,3.29,2.72,4.07l1.03,0.49c1.6,0.76,3.41,0.56,4.78-0.37c-0.52,1.58-0.89,3.23-1.1,4.93
		c-0.84-1.72-2.67-2.85-4.69-2.69l-1.14,0.09c-1.52,0.12-2.82,0.95-3.62,2.13C94.26,239.87,94.95,236.98,95.97,234.24 M98.74,232.21
		l1.23-2.56c0.68-1.43,2.42-2.04,3.85-1.36l0.49,0.23c1.43,0.68,2.04,2.42,1.36,3.85l-1.23,2.56c-0.68,1.43-2.42,2.04-3.85,1.36
		l-0.49-0.23C98.67,235.37,98.06,233.64,98.74,232.21 M106.55,219.35c-0.75,1.51-0.69,3.38,0.33,4.87l0.65,0.94
		c1,1.46,2.68,2.19,4.34,2.07c-1.26,1.12-2.41,2.37-3.43,3.72c0.13-1.91-0.89-3.81-2.71-4.68l-1.03-0.49
		c-1.38-0.66-2.92-0.6-4.19,0.03C102.23,223.41,104.27,221.24,106.55,219.35 M109.97,218.96l2.34-1.61c1.31-0.9,3.11-0.56,4.01,0.75
		l0.31,0.45c0.9,1.31,0.56,3.11-0.75,4.01l-2.34,1.61c-1.31,0.9-3.11,0.56-4.01-0.75l-0.31-0.45
		C108.33,221.66,108.66,219.86,109.97,218.96 M123.03,211.75c-1.14,0.88-1.88,2.26-1.88,3.8v1.14c0,2,1.24,3.73,3,4.45
		c-1.78,0.34-3.5,0.87-5.14,1.56c1.06-1.59,1.12-3.73-0.02-5.4l-0.64-0.94c-0.87-1.26-2.24-1.98-3.66-2.07
		C117.3,213.12,120.1,212.26,123.03,211.75 M123.79,215.85c0-1.59,1.3-2.88,2.88-2.88h2.84c1.59,0,2.88,1.3,2.88,2.88v0.54
		c0,1.59-1.3,2.88-2.88,2.88h-2.84c-1.59,0-2.88-1.3-2.88-2.88V215.85z M141.37,213.44c-1.69,0.1-3.29,1.09-4.07,2.72l-0.49,1.03
		c-0.76,1.6-0.56,3.41,0.38,4.78c-1.49-0.49-3.04-0.85-4.64-1.07c1.48-0.82,2.49-2.4,2.49-4.21v-1.14c0-1.76-0.96-3.3-2.38-4.14
		C135.7,211.72,138.62,212.41,141.37,213.44 M143.41,216.21l2.56,1.23c1.43,0.68,2.04,2.42,1.36,3.85l-0.24,0.49
		c-0.68,1.43-2.41,2.04-3.85,1.36l-2.56-1.23c-1.43-0.68-2.04-2.41-1.36-3.85l0.24-0.49C140.25,216.14,141.98,215.53,143.41,216.21
		 M149.35,223.18l0.49-1.03c0.66-1.38,0.59-2.92-0.03-4.19c2.4,1.74,4.57,3.77,6.45,6.05c-1.51-0.75-3.38-0.69-4.87,0.33l-0.94,0.64
		c-1.46,1-2.19,2.68-2.07,4.34c-1.12-1.26-2.37-2.41-3.72-3.43C146.58,226.03,148.48,225.01,149.35,223.18 M156.65,227.44l1.61,2.34
		c0.9,1.31,0.56,3.11-0.75,4.01l-0.45,0.31c-1.31,0.9-3.11,0.56-4.01-0.75l-1.6-2.34c-0.9-1.31-0.56-3.11,0.75-4.01l0.45-0.31
		C153.95,225.8,155.76,226.14,156.65,227.44 M129.07,270.97c-13.49,0-24.42-10.93-24.42-24.42c0-13.49,10.93-24.42,24.42-24.42
		c13.49,0,24.42,10.93,24.42,24.42C153.5,260.03,142.56,270.97,129.07,270.97 M160.08,249.72l-0.54,0.04
		c-1.58,0.12-2.97-1.07-3.1-2.65l-0.22-2.83c-0.12-1.58,1.07-2.98,2.65-3.1l0.54-0.04c1.58-0.12,2.97,1.07,3.1,2.65l0.22,2.83
		C162.85,248.2,161.66,249.6,160.08,249.72 M161.32,232.15c1.19,2.67,2.06,5.52,2.57,8.49c-0.93-1.41-2.59-2.3-4.38-2.16l-1.14,0.09
		c-1.76,0.14-3.23,1.22-3.95,2.72c-0.35-1.67-0.85-3.28-1.5-4.81c1.59,1.06,3.73,1.12,5.4-0.02l0.94-0.65
		C160.51,234.94,161.23,233.57,161.32,232.15 M129.07,209.78c-20.3,0-36.76,16.46-36.76,36.76c0,20.3,16.46,36.77,36.76,36.77
		s36.76-16.46,36.76-36.77C165.84,226.24,149.38,209.78,129.07,209.78"/>
	<path class="st0" d="M85.04,246.54c0-24.32,19.71-44.03,44.03-44.03c24.32,0,44.03,19.71,44.03,44.03
		c0,24.32-19.71,44.03-44.03,44.03C104.76,290.57,85.04,270.86,85.04,246.54 M175.87,246.54c0-25.84-20.95-46.79-46.79-46.79
		c-25.85,0-46.8,20.95-46.8,46.79c0,18.95,11.27,35.27,27.47,42.63l-15.38,78.31l69.12,0l-15.54-78.1
		C164.39,282.12,175.87,265.67,175.87,246.54"/>
</g>
<polygon class="st0" points="198.63,300.9 206.66,250.77 224.72,250.77 227.76,282.03 240.81,250.77 258.87,250.77 250.84,300.9 
	237.41,300.9 239.86,285.58 241.3,277.78 243.51,268.73 243.38,268.73 229.93,300.9 219.54,300.9 216.39,268.73 216.26,268.73 
	215.72,276.11 214.78,283.91 212.06,300.9 "/>
<polygon class="st1" points="259.45,300.9 267.48,250.77 282.43,250.77 274.41,300.9 "/>
<g>
	<path class="st1" d="M327.79,301.04h-9.63l0.22-4.94c-2.98,3.2-7.57,6.13-14.73,6.13c-11.66,0-20.79-8.29-17.99-25.76
		c2.56-16.01,13.45-27.02,28.21-27.02c10.96,0,18.76,6.27,18.63,18.59h-14.19c-0.42-4.11-2.79-6.34-6.65-6.34
		c-5.89,0-9.62,5.85-11.03,14.69c-1.14,7.1-0.15,13.58,7.39,13.58c3.04,0,7.27-2.3,8.59-5.78h-6.59l1.74-10.86h20.46L327.79,301.04z
		"/>
</g>
<polygon class="st1" points="336.43,300.9 344.46,250.77 359.41,250.77 356.7,267.68 370.83,267.68 373.54,250.77 388.49,250.77 
	380.47,300.9 365.51,300.9 368.62,281.47 354.49,281.47 351.38,300.9 "/>
<polygon class="st1" points="394.83,250.77 436.64,250.77 434.54,263.92 421.1,263.92 415.18,300.9 400.23,300.9 406.15,263.92 
	392.72,263.92 "/>
<polygon class="st1" points="462.7,300.9 447.75,300.9 450.67,282.65 438.8,250.77 455.52,250.77 460.66,267.75 471.24,250.77 
	487.71,250.77 465.67,282.38 "/>
<polygon class="st1" points="505.78,300.9 513.81,250.77 528.76,250.77 522.61,289.2 543.14,289.2 541.26,300.9 "/>
<g>
	<path class="st1" d="M555.69,250.77h14.95l-4.8,30.01c-0.79,4.94-0.58,9.19,5.56,9.19c5.39,0,7.57-3.76,8.44-9.19l4.81-30.01h14.95
		l-4.54,28.34c-2.58,16.08-10.48,23.12-25.62,23.12c-14.13,0-21.04-5.92-18.27-23.19L555.69,250.77z"/>
	<path class="st1" d="M621.67,262.46l-1.34,8.36h6.21c2.98,0,5.37-1.46,5.83-4.39c0.62-3.9-2.28-3.97-5.45-3.97H621.67z
		 M618.87,279.94l-1.48,9.26h6.53c3.67,0,6.6-0.83,7.2-4.6c0.7-4.39-2.74-4.66-7.49-4.66H618.87z M600.56,300.9l8.03-50.13h21.8
		c10.26,0,18.01,2.65,16.42,12.6c-0.83,5.15-4.47,8.91-7.71,10.93c4.72,1.39,6.63,6.06,5.76,11.49
		c-1.8,11.21-10.21,15.11-22.06,15.11H600.56z"/>
</g>
<polygon class="st1" points="650.11,300.9 658.14,250.77 695.33,250.77 693.45,262.46 671.22,262.46 670.07,269.63 688.89,269.63 
	687.01,281.33 668.19,281.33 666.93,289.2 690.06,289.2 688.19,300.9 "/>
<g>
	<path class="st1" d="M703.35,290.04c-0.38-0.21-1-0.32-1.84-0.32h-1.3v3.12h1.37c0.64,0,1.13-0.07,1.45-0.19
		c0.59-0.24,0.89-0.68,0.89-1.35C703.93,290.68,703.73,290.25,703.35,290.04 M701.71,288.68c1.07,0,1.85,0.1,2.35,0.31
		c0.89,0.37,1.34,1.1,1.34,2.18c0,0.77-0.28,1.34-0.84,1.7c-0.3,0.19-0.71,0.33-1.25,0.42c0.67,0.11,1.17,0.39,1.48,0.85
		c0.31,0.46,0.47,0.9,0.47,1.33v0.63c0,0.2,0.01,0.41,0.02,0.64c0.01,0.23,0.04,0.38,0.08,0.45l0.05,0.11h-1.42
		c-0.01-0.03-0.02-0.06-0.02-0.08c-0.01-0.03-0.01-0.06-0.02-0.1l-0.03-0.28v-0.68c0-0.99-0.27-1.65-0.81-1.97
		c-0.32-0.18-0.89-0.28-1.69-0.28h-1.2v3.39h-1.52v-8.62H701.71z M697.09,288.24c-1.31,1.32-1.97,2.91-1.97,4.78
		c0,1.88,0.65,3.49,1.96,4.81c1.31,1.33,2.91,1.99,4.78,1.99s3.47-0.66,4.78-1.99c1.31-1.33,1.97-2.93,1.97-4.81
		c0-1.87-0.66-3.46-1.97-4.78c-1.32-1.33-2.91-1.99-4.78-1.99C700,286.25,698.41,286.92,697.09,288.24 M707.42,298.59
		c-1.53,1.54-3.39,2.31-5.56,2.31c-2.17,0-4.03-0.77-5.55-2.31c-1.52-1.53-2.28-3.39-2.28-5.57c0-2.16,0.77-4.01,2.3-5.54
		c1.53-1.53,3.37-2.29,5.53-2.29c2.17,0,4.03,0.76,5.56,2.29c1.53,1.53,2.3,3.37,2.3,5.54
		C709.72,295.19,708.95,297.05,707.42,298.59"/>
	<path class="st1" d="M204.13,350.72c0.18,1.26,0.53,2.2,1.05,2.82c0.96,1.14,2.59,1.7,4.91,1.7c1.39,0,2.51-0.15,3.38-0.45
		c1.64-0.57,2.46-1.64,2.46-3.2c0-0.91-0.4-1.62-1.21-2.11c-0.8-0.49-2.08-0.92-3.83-1.29l-2.98-0.65
		c-2.93-0.65-4.95-1.35-6.05-2.11c-1.86-1.27-2.79-3.26-2.79-5.97c0-2.47,0.91-4.52,2.73-6.15c1.82-1.63,4.49-2.45,8.01-2.45
		c2.94,0,5.45,0.77,7.53,2.31c2.08,1.54,3.16,3.77,3.27,6.7h-5.54c-0.1-1.66-0.84-2.84-2.22-3.54c-0.92-0.46-2.06-0.69-3.43-0.69
		c-1.52,0-2.74,0.3-3.64,0.9c-0.91,0.6-1.36,1.43-1.36,2.51c0,0.99,0.45,1.72,1.34,2.21c0.58,0.32,1.8,0.7,3.66,1.14l4.84,1.14
		c2.12,0.5,3.71,1.17,4.77,2c1.64,1.3,2.46,3.17,2.46,5.63c0,2.52-0.97,4.61-2.92,6.27c-1.95,1.67-4.7,2.5-8.25,2.5
		c-3.63,0-6.48-0.82-8.56-2.46c-2.08-1.64-3.12-3.89-3.12-6.76H204.13z"/>
	<path class="st1" d="M225.9,363.14l0.67,0.04c0.52,0.02,1.02,0.01,1.5-0.06c0.47-0.06,0.87-0.21,1.2-0.43
		c0.31-0.21,0.6-0.65,0.87-1.33c0.27-0.67,0.38-1.08,0.35-1.23l-7.49-21.28h5.93l4.45,15.04l4.21-15.04h5.67l-6.99,20.05
		c-1.35,3.87-2.42,6.26-3.2,7.19c-0.79,0.93-2.36,1.39-4.72,1.39c-0.47,0-0.85,0-1.14-0.01s-0.72-0.03-1.29-0.06V363.14z"/>
	<path class="st1" d="M250.53,352.72c0.11,0.95,0.36,1.62,0.73,2.02c0.66,0.71,1.89,1.07,3.68,1.07c1.05,0,1.89-0.16,2.51-0.47
		c0.62-0.31,0.93-0.78,0.93-1.4c0-0.6-0.25-1.05-0.75-1.37c-0.5-0.31-2.36-0.85-5.58-1.61c-2.32-0.57-3.95-1.29-4.9-2.15
		c-0.95-0.85-1.42-2.07-1.42-3.67c0-1.88,0.74-3.5,2.22-4.85c1.48-1.35,3.56-2.03,6.25-2.03c2.55,0,4.63,0.51,6.23,1.52
		c1.61,1.02,2.53,2.77,2.77,5.26h-5.33c-0.07-0.69-0.27-1.23-0.58-1.63c-0.59-0.72-1.59-1.08-3-1.08c-1.16,0-1.99,0.18-2.49,0.54
		c-0.49,0.36-0.74,0.79-0.74,1.27c0,0.61,0.26,1.05,0.79,1.33c0.53,0.29,2.38,0.78,5.57,1.48c2.12,0.5,3.71,1.25,4.77,2.26
		c1.05,1.02,1.57,2.3,1.57,3.83c0,2.02-0.75,3.67-2.26,4.95c-1.5,1.28-3.83,1.92-6.98,1.92c-3.21,0-5.58-0.68-7.11-2.03
		c-1.53-1.35-2.3-3.08-2.3-5.17H250.53z"/>
	<path class="st1" d="M265.61,342.82v-3.79h2.84v-5.68h5.27v5.68h3.31v3.79h-3.31v10.77c0,0.83,0.11,1.36,0.32,1.56
		c0.21,0.2,0.86,0.31,1.94,0.31c0.16,0,0.33,0,0.51-0.01c0.18-0.01,0.36-0.02,0.53-0.03v3.98l-2.52,0.09
		c-2.52,0.09-4.24-0.35-5.16-1.31c-0.6-0.61-0.9-1.55-0.9-2.82v-12.55H265.61z"/>
	<path class="st1" d="M285.77,343.86c-0.75,0.78-1.23,1.83-1.42,3.15h9.18c-0.1-1.42-0.57-2.49-1.42-3.22
		c-0.85-0.73-1.9-1.1-3.16-1.1C287.58,342.7,286.52,343.09,285.77,343.86 M293.74,339.26c1.42,0.64,2.6,1.64,3.52,3.02
		c0.83,1.21,1.38,2.62,1.62,4.21c0.14,0.94,0.2,2.28,0.18,4.04h-14.85c0.08,2.05,0.79,3.48,2.13,4.3c0.81,0.51,1.79,0.77,2.94,0.77
		c1.21,0,2.2-0.31,2.96-0.93c0.41-0.34,0.78-0.8,1.1-1.4h5.44c-0.14,1.21-0.8,2.44-1.98,3.68c-1.83,1.98-4.38,2.97-7.67,2.97
		c-2.71,0-5.11-0.84-7.18-2.51s-3.11-4.39-3.11-8.16c0-3.53,0.94-6.24,2.81-8.12c1.87-1.88,4.3-2.83,7.29-2.83
		C290.72,338.3,292.32,338.62,293.74,339.26"/>
	<path class="st1" d="M327.2,338.92c0.87,0.35,1.66,0.96,2.38,1.83c0.57,0.71,0.96,1.58,1.16,2.62c0.12,0.69,0.19,1.69,0.19,3.01
		l-0.04,12.85h-5.46v-12.98c0-0.77-0.12-1.41-0.37-1.91c-0.47-0.95-1.35-1.42-2.62-1.42c-1.47,0-2.49,0.61-3.05,1.83
		c-0.29,0.65-0.43,1.43-0.43,2.34v12.14h-5.37v-12.14c0-1.21-0.12-2.09-0.37-2.64c-0.45-0.98-1.33-1.48-2.64-1.48
		c-1.52,0-2.54,0.49-3.07,1.48c-0.29,0.56-0.43,1.4-0.43,2.51v12.27h-5.41v-20.35h5.18v2.97c0.66-1.06,1.28-1.81,1.87-2.26
		c1.04-0.8,2.38-1.2,4.02-1.2c1.56,0,2.82,0.34,3.78,1.03c0.77,0.64,1.36,1.45,1.76,2.45c0.7-1.2,1.56-2.08,2.6-2.64
		c1.1-0.56,2.32-0.84,3.67-0.84C325.44,338.4,326.32,338.57,327.2,338.92"/>
	<path class="st1" d="M347.15,349.32c-0.34,0.21-0.68,0.38-1.03,0.51c-0.35,0.13-0.83,0.25-1.43,0.37l-1.21,0.22
		c-1.14,0.2-1.95,0.44-2.45,0.73c-0.84,0.49-1.26,1.24-1.26,2.26c0,0.91,0.26,1.57,0.77,1.97c0.51,0.41,1.14,0.61,1.87,0.61
		c1.16,0,2.24-0.34,3.22-1.01c0.98-0.67,1.49-1.9,1.53-3.68V349.32z M343.89,346.83c0.99-0.12,1.7-0.28,2.13-0.47
		c0.77-0.32,1.15-0.83,1.15-1.51c0-0.84-0.29-1.41-0.88-1.73c-0.59-0.32-1.45-0.48-2.59-0.48c-1.28,0-2.18,0.31-2.71,0.93
		c-0.38,0.46-0.63,1.08-0.76,1.87h-5.14c0.11-1.78,0.61-3.25,1.5-4.4c1.42-1.79,3.84-2.69,7.29-2.69c2.24,0,4.23,0.44,5.97,1.33
		c1.74,0.89,2.61,2.56,2.61,5.01v9.35c0,0.65,0.01,1.43,0.04,2.36c0.04,0.7,0.14,1.17,0.32,1.42c0.17,0.25,0.44,0.46,0.79,0.62v0.79
		h-5.8c-0.16-0.41-0.27-0.8-0.34-1.16c-0.06-0.36-0.11-0.77-0.15-1.23c-0.74,0.8-1.59,1.48-2.56,2.04
		c-1.15,0.66-2.46,0.99-3.91,0.99c-1.86,0-3.39-0.53-4.6-1.58c-1.21-1.05-1.82-2.55-1.82-4.48c0-2.51,0.97-4.32,2.92-5.44
		c1.07-0.61,2.64-1.05,4.71-1.31L343.89,346.83z"/>
	<path class="st1" d="M355.03,342.82v-3.79h2.84v-5.68h5.27v5.68h3.31v3.79h-3.31v10.77c0,0.83,0.11,1.36,0.32,1.56
		c0.21,0.2,0.86,0.31,1.94,0.31c0.16,0,0.33,0,0.51-0.01c0.18-0.01,0.36-0.02,0.53-0.03v3.98l-2.52,0.09
		c-2.52,0.09-4.24-0.35-5.16-1.31c-0.6-0.61-0.9-1.55-0.9-2.82v-12.55H355.03z"/>
</g>
<path class="st1" d="M369.95,338.85h5.4v20.39h-5.4V338.85z M375.36,336.41h-5.4v-4.92h5.4V336.41z"/>
<g>
	<path class="st1" d="M392.71,346.16c-0.1-0.76-0.36-1.45-0.77-2.06c-0.6-0.82-1.53-1.24-2.79-1.24c-1.8,0-3.03,0.89-3.69,2.68
		c-0.35,0.94-0.52,2.2-0.52,3.77c0,1.49,0.17,2.69,0.52,3.6c0.64,1.7,1.84,2.54,3.6,2.54c1.25,0,2.14-0.34,2.66-1.01
		c0.52-0.67,0.84-1.55,0.96-2.62h5.44c-0.12,1.62-0.71,3.15-1.76,4.6c-1.67,2.33-4.15,3.5-7.43,3.5c-3.28,0-5.7-0.97-7.24-2.92
		c-1.55-1.95-2.32-4.47-2.32-7.57c0-3.5,0.85-6.22,2.57-8.16c1.71-1.95,4.07-2.92,7.08-2.92c2.56,0,4.65,0.57,6.28,1.72
		c1.63,1.15,2.59,3.17,2.89,6.08H392.71z"/>
</g>
<polygon class="st1" points="412.89,331.66 418.65,331.66 418.65,354.27 432.42,354.27 432.42,359.23 412.89,359.23 "/>
<g>
	<path class="st1" d="M441.17,338.84v12.29c0,1.16,0.14,2.03,0.41,2.62c0.48,1.04,1.43,1.55,2.85,1.55c1.81,0,3.05-0.74,3.72-2.21
		c0.35-0.8,0.52-1.85,0.52-3.16v-11.09h5.4v20.39h-5.18v-2.88c-0.05,0.06-0.17,0.25-0.37,0.56c-0.2,0.31-0.43,0.59-0.71,0.82
		c-0.83,0.75-1.64,1.26-2.41,1.53c-0.78,0.27-1.69,0.41-2.73,0.41c-3.01,0-5.04-1.09-6.08-3.26c-0.58-1.2-0.88-2.96-0.88-5.29
		v-12.29H441.17z"/>
	<path class="st1" d="M472.21,353.71c0.77-1.11,1.15-2.57,1.15-4.38c0-1.45-0.19-2.64-0.57-3.59c-0.72-1.8-2.04-2.69-3.96-2.69
		c-1.95,0-3.29,0.88-4.02,2.64c-0.38,0.93-0.57,2.14-0.57,3.63c0,1.75,0.39,3.19,1.17,4.34c0.78,1.15,1.97,1.72,3.56,1.72
		C470.37,355.38,471.44,354.82,472.21,353.71 M476.67,341.3c1.52,1.93,2.29,4.43,2.29,7.48c0,3.17-0.75,5.79-2.26,7.87
		c-1.5,2.08-3.6,3.12-6.3,3.12c-1.69,0-3.05-0.34-4.08-1.01c-0.62-0.4-1.28-1.1-1.99-2.1v2.56h-5.26V331.7h5.33v9.8
		c0.68-0.95,1.42-1.67,2.24-2.17c0.97-0.62,2.2-0.93,3.69-0.93C473.03,338.4,475.14,339.36,476.67,341.3"/>
	<path class="st1" d="M493.98,338.37c0.07,0.01,0.22,0.02,0.46,0.03v5.46c-0.34-0.04-0.64-0.06-0.9-0.08
		c-0.26-0.01-0.47-0.02-0.64-0.02c-2.14,0-3.58,0.7-4.32,2.09c-0.41,0.79-0.62,2-0.62,3.63v9.74h-5.37v-20.39h5.09v3.55
		c0.82-1.36,1.54-2.29,2.15-2.79c1-0.84,2.29-1.25,3.89-1.25C493.83,338.36,493.91,338.36,493.98,338.37"/>
</g>
<path class="st1" d="M497.64,338.85h5.4v20.39h-5.4V338.85z M503.04,336.41h-5.4v-4.92h5.4V336.41z"/>
<g>
	<path class="st1" d="M520.4,346.16c-0.1-0.76-0.36-1.45-0.77-2.06c-0.6-0.82-1.53-1.24-2.79-1.24c-1.8,0-3.03,0.89-3.69,2.68
		c-0.35,0.94-0.52,2.2-0.52,3.77c0,1.49,0.17,2.69,0.52,3.6c0.64,1.7,1.84,2.54,3.6,2.54c1.25,0,2.14-0.34,2.66-1.01
		c0.52-0.67,0.84-1.55,0.96-2.62h5.44c-0.12,1.62-0.71,3.15-1.76,4.6c-1.67,2.33-4.15,3.5-7.43,3.5c-3.28,0-5.7-0.97-7.25-2.92
		s-2.32-4.47-2.32-7.57c0-3.5,0.86-6.22,2.57-8.16c1.71-1.95,4.07-2.92,7.08-2.92c2.56,0,4.65,0.57,6.28,1.72
		c1.63,1.15,2.59,3.17,2.89,6.08H520.4z"/>
	<path class="st1" d="M540.84,349.32c-0.34,0.21-0.68,0.38-1.03,0.51c-0.35,0.13-0.83,0.25-1.43,0.37l-1.21,0.22
		c-1.14,0.2-1.95,0.44-2.45,0.73c-0.84,0.49-1.26,1.24-1.26,2.26c0,0.91,0.26,1.57,0.77,1.97c0.51,0.41,1.14,0.61,1.87,0.61
		c1.16,0,2.24-0.34,3.22-1.01c0.98-0.67,1.49-1.9,1.53-3.68V349.32z M537.58,346.83c0.99-0.12,1.7-0.28,2.13-0.47
		c0.77-0.32,1.15-0.83,1.15-1.51c0-0.84-0.29-1.41-0.88-1.73c-0.59-0.32-1.45-0.48-2.59-0.48c-1.28,0-2.18,0.31-2.71,0.93
		c-0.38,0.46-0.63,1.08-0.76,1.87h-5.14c0.11-1.78,0.61-3.25,1.5-4.4c1.41-1.79,3.84-2.69,7.29-2.69c2.24,0,4.23,0.44,5.97,1.33
		c1.74,0.89,2.61,2.56,2.61,5.01v9.35c0,0.65,0.01,1.43,0.04,2.36c0.04,0.7,0.14,1.17,0.32,1.42c0.17,0.25,0.44,0.46,0.79,0.62v0.79
		h-5.8c-0.16-0.41-0.28-0.8-0.34-1.16c-0.06-0.36-0.11-0.77-0.15-1.23c-0.74,0.8-1.59,1.48-2.56,2.04
		c-1.15,0.66-2.46,0.99-3.91,0.99c-1.86,0-3.39-0.53-4.6-1.58c-1.21-1.05-1.82-2.55-1.82-4.48c0-2.51,0.97-4.32,2.92-5.44
		c1.07-0.61,2.64-1.05,4.71-1.31L537.58,346.83z"/>
	<path class="st1" d="M548.72,342.82v-3.79h2.84v-5.68h5.27v5.68h3.31v3.79h-3.31v10.77c0,0.83,0.11,1.36,0.32,1.56
		c0.21,0.2,0.86,0.31,1.94,0.31c0.16,0,0.33,0,0.51-0.01c0.18-0.01,0.36-0.02,0.53-0.03v3.98l-2.52,0.09
		c-2.52,0.09-4.24-0.35-5.16-1.31c-0.6-0.61-0.9-1.55-0.9-2.82v-12.55H548.72z"/>
</g>
<path class="st1" d="M563.64,338.85h5.41v20.39h-5.41V338.85z M569.05,336.41h-5.41v-4.92h5.41V336.41z"/>
<g>
	<path class="st1" d="M586.94,353.79c0.83-1.11,1.25-2.68,1.25-4.73s-0.42-3.61-1.25-4.72c-0.84-1.1-2.03-1.65-3.59-1.65
		c-1.56,0-2.76,0.55-3.6,1.65c-0.84,1.1-1.26,2.67-1.26,4.72s0.42,3.62,1.26,4.73c0.84,1.11,2.04,1.66,3.6,1.66
		C584.91,355.45,586.11,354.9,586.94,353.79 M591.21,356.74c-1.72,2.12-4.33,3.19-7.84,3.19c-3.5,0-6.11-1.06-7.84-3.19
		s-2.58-4.68-2.58-7.67c0-2.94,0.86-5.49,2.58-7.64c1.72-2.16,4.33-3.23,7.84-3.23c3.5,0,6.12,1.08,7.84,3.23
		c1.72,2.16,2.58,4.7,2.58,7.64C593.79,352.06,592.93,354.61,591.21,356.74"/>
	<path class="st1" d="M614.05,340.01c1.33,1.1,2,2.93,2,5.49v13.73h-5.46v-12.4c0-1.07-0.14-1.9-0.43-2.47
		c-0.52-1.05-1.51-1.57-2.97-1.57c-1.79,0-3.03,0.77-3.69,2.3c-0.35,0.81-0.52,1.85-0.52,3.11v11.04h-5.33v-20.35h5.16v2.97
		c0.68-1.05,1.33-1.8,1.94-2.26c1.09-0.82,2.48-1.23,4.15-1.23C610.99,338.36,612.71,338.91,614.05,340.01"/>
	<path class="st1" d="M620.72,363.66c1.07-0.3,1.86-0.8,2.37-1.5c0.51-0.7,0.79-1.68,0.87-2.94h-3.24v-5.59h5.76v4.84
		c0,0.85-0.11,1.74-0.34,2.66c-0.22,0.92-0.64,1.72-1.25,2.39c-0.66,0.72-1.44,1.27-2.33,1.64c-0.89,0.37-1.51,0.55-1.84,0.55
		V363.66z"/>
</g>
<rect x="642.25" y="331.66" class="st1" width="5.72" height="27.57"/>
<g>
	<path class="st1" d="M669.37,340.01c1.33,1.1,2,2.93,2,5.49v13.73h-5.46v-12.4c0-1.07-0.14-1.9-0.43-2.47
		c-0.52-1.05-1.51-1.57-2.97-1.57c-1.79,0-3.03,0.77-3.69,2.3c-0.35,0.81-0.52,1.85-0.52,3.11v11.04h-5.33v-20.35h5.16v2.97
		c0.68-1.05,1.33-1.8,1.94-2.26c1.09-0.82,2.48-1.23,4.15-1.23C666.32,338.36,668.03,338.91,669.37,340.01"/>
	<path class="st1" d="M688.52,346.16c-0.1-0.76-0.36-1.45-0.77-2.06c-0.6-0.82-1.53-1.24-2.79-1.24c-1.8,0-3.03,0.89-3.69,2.68
		c-0.35,0.94-0.52,2.2-0.52,3.77c0,1.49,0.17,2.69,0.52,3.6c0.64,1.7,1.84,2.54,3.6,2.54c1.25,0,2.14-0.34,2.66-1.01
		c0.52-0.67,0.84-1.55,0.96-2.62h5.44c-0.12,1.62-0.71,3.15-1.76,4.6c-1.67,2.33-4.15,3.5-7.43,3.5c-3.28,0-5.7-0.97-7.25-2.92
		c-1.55-1.95-2.32-4.47-2.32-7.57c0-3.5,0.85-6.22,2.56-8.16c1.71-1.95,4.07-2.92,7.08-2.92c2.56,0,4.65,0.57,6.28,1.72
		c1.63,1.15,2.59,3.17,2.89,6.08H688.52z"/>
</g>
<rect x="697.54" y="353.64" class="st1" width="5.67" height="5.59"/>
<g>
	<path class="st1" d="M702.56,395.08c-0.46-0.48-1.03-0.87-1.69-1.16c-0.66-0.29-1.42-0.44-2.29-0.44c-0.83,0-1.57,0.13-2.21,0.39
		c-0.65,0.26-1.19,0.62-1.64,1.05c-0.45,0.44-0.79,0.94-1.02,1.51s-0.35,1.15-0.35,1.75c0,0.51,0.08,0.94,0.24,1.29
		c0.16,0.35,0.37,0.65,0.63,0.89c0.26,0.25,0.56,0.45,0.89,0.61c0.33,0.16,0.67,0.31,1.02,0.44c0.35,0.13,0.69,0.25,1.02,0.37
		c0.33,0.12,0.63,0.26,0.89,0.42s0.48,0.35,0.64,0.57c0.16,0.22,0.24,0.49,0.24,0.82c0,0.29-0.06,0.57-0.18,0.83
		c-0.12,0.26-0.29,0.5-0.51,0.7c-0.22,0.2-0.49,0.36-0.8,0.47c-0.32,0.11-0.68,0.17-1.09,0.17c-0.49,0-0.89-0.06-1.2-0.18
		c-0.31-0.12-0.57-0.26-0.79-0.41c-0.21-0.15-0.4-0.29-0.55-0.41c-0.16-0.12-0.31-0.18-0.48-0.18c-0.17,0-0.32,0.04-0.44,0.12
		c-0.12,0.08-0.22,0.18-0.31,0.32l-0.72,1.12c0.43,0.49,1,0.9,1.71,1.22c0.72,0.32,1.51,0.48,2.4,0.48c0.85,0,1.61-0.13,2.3-0.4
		c0.69-0.27,1.27-0.63,1.76-1.08c0.49-0.45,0.86-0.98,1.12-1.58c0.26-0.6,0.39-1.23,0.39-1.88c0-0.49-0.08-0.91-0.24-1.27
		c-0.16-0.35-0.37-0.66-0.64-0.91s-0.56-0.46-0.9-0.64c-0.34-0.18-0.68-0.33-1.03-0.47c-0.35-0.14-0.69-0.27-1.03-0.4
		c-0.34-0.13-0.64-0.27-0.9-0.42c-0.27-0.15-0.48-0.33-0.64-0.54c-0.16-0.2-0.24-0.46-0.24-0.76c0-0.26,0.06-0.51,0.17-0.75
		c0.11-0.24,0.28-0.44,0.5-0.61c0.22-0.17,0.48-0.31,0.79-0.41c0.3-0.1,0.65-0.15,1.03-0.15c0.41,0,0.76,0.05,1.05,0.14
		c0.29,0.1,0.54,0.2,0.76,0.32c0.21,0.12,0.4,0.22,0.55,0.32c0.15,0.1,0.3,0.14,0.45,0.14c0.13,0,0.23-0.03,0.32-0.08
		c0.09-0.05,0.17-0.14,0.25-0.27L702.56,395.08z M682.04,394.66c0-0.34-0.08-0.59-0.25-0.74c-0.17-0.16-0.41-0.24-0.73-0.24h-1.47
		l-1.66,13.95h2.92l0.77-6.93c0.22-0.72,0.49-1.37,0.83-1.96c0.34-0.59,0.7-1.09,1.09-1.5c0.39-0.41,0.79-0.74,1.22-0.96
		c0.42-0.23,0.83-0.34,1.24-0.34c0.63,0,1.06,0.23,1.3,0.68c0.24,0.45,0.3,1.17,0.17,2.16l-1.05,8.86h2.92l1.05-8.86
		c0.1-0.85,0.09-1.6-0.01-2.25c-0.11-0.65-0.31-1.21-0.6-1.66c-0.29-0.45-0.66-0.79-1.12-1.02s-0.97-0.35-1.56-0.35
		c-0.95,0-1.87,0.28-2.76,0.84c-0.89,0.56-1.7,1.4-2.42,2.53L682.04,394.66z M670.78,407.52c0.62-0.21,1.2-0.49,1.73-0.86
		c0.53-0.37,1.02-0.81,1.46-1.33c0.44-0.52,0.82-1.09,1.13-1.73c0.31-0.63,0.55-1.31,0.72-2.04c0.17-0.73,0.26-1.48,0.26-2.27
		c0-0.92-0.13-1.74-0.4-2.46c-0.26-0.72-0.63-1.33-1.09-1.83c-0.47-0.5-1.02-0.87-1.67-1.13c-0.65-0.26-1.35-0.39-2.11-0.39
		c-1,0-1.94,0.22-2.82,0.66c-0.88,0.44-1.64,1.05-2.3,1.82c-0.65,0.77-1.17,1.67-1.55,2.71c-0.38,1.04-0.57,2.15-0.57,3.34
		c0,0.92,0.13,1.74,0.4,2.46c0.26,0.72,0.63,1.33,1.1,1.83c0.47,0.5,1.03,0.87,1.67,1.13c0.65,0.26,1.35,0.39,2.12,0.39
		C669.52,407.83,670.16,407.73,670.78,407.52 M666.51,401.99c0-0.83,0.09-1.62,0.29-2.38c0.19-0.76,0.46-1.41,0.81-1.98
		c0.35-0.56,0.77-1.01,1.26-1.35c0.5-0.34,1.05-0.5,1.67-0.5c0.86,0,1.52,0.29,1.96,0.87c0.44,0.58,0.66,1.47,0.66,2.67
		c0,0.82-0.09,1.6-0.29,2.35c-0.19,0.75-0.46,1.41-0.81,1.99c-0.35,0.57-0.77,1.03-1.28,1.37c-0.5,0.34-1.05,0.51-1.66,0.51
		C667.38,405.54,666.51,404.35,666.51,401.99 M662.6,388.73c-0.1-0.24-0.25-0.44-0.42-0.62c-0.18-0.18-0.38-0.32-0.61-0.42
		c-0.23-0.1-0.47-0.16-0.72-0.16c-0.24,0-0.47,0.05-0.7,0.16c-0.23,0.11-0.43,0.25-0.6,0.42c-0.17,0.18-0.31,0.39-0.42,0.63
		c-0.11,0.24-0.16,0.49-0.16,0.76c0,0.26,0.05,0.51,0.16,0.75c0.1,0.24,0.24,0.44,0.41,0.62c0.17,0.18,0.36,0.32,0.59,0.42
		c0.22,0.1,0.46,0.16,0.7,0.16c0.25,0,0.48-0.05,0.71-0.16c0.23-0.11,0.43-0.25,0.61-0.42c0.18-0.18,0.33-0.39,0.44-0.62
		c0.11-0.24,0.16-0.49,0.16-0.75C662.75,389.22,662.7,388.97,662.6,388.73 M661.58,393.92h-8.94l0.57-4.6h-1.56
		c-0.17,0-0.32,0.05-0.43,0.14c-0.11,0.1-0.2,0.22-0.25,0.38l-1.08,4.05l-2.1,0.33l-0.14,1.13c-0.02,0.2,0.02,0.35,0.12,0.46
		c0.1,0.11,0.22,0.16,0.38,0.16h1.38l-0.82,6.61c-0.05,0.43-0.1,0.78-0.13,1.05c-0.03,0.27-0.05,0.49-0.07,0.65
		c-0.01,0.16-0.02,0.29-0.02,0.38v0.22c0.03,0.95,0.31,1.68,0.85,2.19c0.54,0.51,1.29,0.77,2.23,0.77c0.6,0,1.19-0.11,1.78-0.32
		c0.59-0.21,1.12-0.52,1.59-0.92l-0.63-1.43c-0.04-0.1-0.09-0.17-0.14-0.21c-0.05-0.04-0.11-0.06-0.21-0.06
		c-0.07,0-0.15,0.03-0.24,0.09c-0.09,0.06-0.19,0.12-0.3,0.19s-0.25,0.13-0.41,0.19c-0.16,0.06-0.34,0.09-0.55,0.09
		c-0.35,0-0.61-0.11-0.81-0.31c-0.19-0.21-0.29-0.51-0.29-0.91c0-0.03,0-0.07,0.01-0.12c0.01-0.05,0.01-0.14,0.03-0.27
		c0.01-0.13,0.03-0.31,0.06-0.53c0.03-0.22,0.06-0.52,0.11-0.89l0.81-6.44h6.11l-1.43,11.66h2.83l1.43-11.66L661.58,393.92z
		 M642.62,393.7l-0.86,7.19c-0.23,0.68-0.51,1.3-0.83,1.86s-0.68,1.03-1.07,1.42c-0.38,0.39-0.78,0.69-1.19,0.91
		c-0.41,0.21-0.81,0.32-1.19,0.32c-0.63,0-1.06-0.23-1.3-0.68c-0.24-0.46-0.3-1.18-0.17-2.17l1.05-8.85h-2.92l-1.05,8.85
		c-0.1,0.85-0.1,1.6,0.01,2.25c0.11,0.66,0.31,1.21,0.6,1.66c0.29,0.45,0.66,0.79,1.12,1.02s0.97,0.35,1.56,0.35
		c0.93,0,1.83-0.27,2.71-0.81c0.88-0.54,1.67-1.35,2.38-2.44l-0.14,2.01c0,0.69,0.35,1.04,1.07,1.04h1.46l1.68-13.92H642.62z
		 M629.05,407.62l2.46-20.2h-2.89l-2.44,20.2H629.05z M618.99,407.52c0.62-0.21,1.19-0.49,1.73-0.86c0.53-0.37,1.02-0.81,1.46-1.33
		c0.44-0.52,0.82-1.09,1.13-1.73c0.31-0.63,0.55-1.31,0.72-2.04c0.17-0.73,0.26-1.48,0.26-2.27c0-0.92-0.13-1.74-0.4-2.46
		c-0.26-0.72-0.63-1.33-1.09-1.83c-0.46-0.5-1.02-0.87-1.66-1.13c-0.65-0.26-1.35-0.39-2.12-0.39c-1,0-1.94,0.22-2.82,0.66
		c-0.88,0.44-1.65,1.05-2.3,1.82c-0.66,0.77-1.17,1.67-1.55,2.71c-0.38,1.04-0.57,2.15-0.57,3.34c0,0.92,0.13,1.74,0.4,2.46
		c0.26,0.72,0.63,1.33,1.1,1.83c0.47,0.5,1.03,0.87,1.67,1.13c0.65,0.26,1.35,0.39,2.12,0.39
		C617.73,407.83,618.37,407.73,618.99,407.52 M614.72,401.99c0-0.83,0.1-1.62,0.29-2.38c0.19-0.76,0.46-1.41,0.8-1.98
		c0.35-0.56,0.77-1.01,1.26-1.35c0.5-0.34,1.05-0.5,1.67-0.5c0.86,0,1.52,0.29,1.96,0.87c0.44,0.58,0.66,1.47,0.66,2.67
		c0,0.82-0.1,1.6-0.29,2.35c-0.19,0.75-0.46,1.41-0.81,1.99c-0.35,0.57-0.78,1.03-1.28,1.37c-0.5,0.34-1.06,0.51-1.67,0.51
		C615.59,405.54,614.72,404.35,614.72,401.99 M610.69,389.98c-0.26-0.33-0.57-0.63-0.91-0.9c-0.34-0.27-0.72-0.51-1.14-0.7
		c-0.42-0.2-0.86-0.35-1.34-0.45c-0.47-0.1-0.97-0.16-1.49-0.16c-1.02,0-1.93,0.18-2.74,0.53s-1.5,0.82-2.07,1.4
		c-0.57,0.58-1,1.25-1.3,2.01c-0.3,0.76-0.45,1.55-0.45,2.38c0,0.73,0.11,1.35,0.32,1.85c0.21,0.5,0.49,0.93,0.85,1.27
		c0.35,0.34,0.75,0.62,1.19,0.85c0.45,0.22,0.9,0.42,1.36,0.59c0.46,0.17,0.92,0.34,1.36,0.49c0.45,0.15,0.84,0.34,1.2,0.56
		c0.35,0.22,0.63,0.48,0.85,0.79c0.21,0.31,0.32,0.7,0.32,1.17c0,0.55-0.08,1.04-0.25,1.49c-0.17,0.45-0.41,0.83-0.72,1.15
		c-0.31,0.31-0.7,0.56-1.15,0.73c-0.45,0.17-0.96,0.26-1.53,0.26c-0.65,0-1.19-0.1-1.62-0.29c-0.44-0.2-0.81-0.41-1.11-0.66
		c-0.31-0.24-0.56-0.46-0.77-0.65c-0.21-0.2-0.42-0.29-0.62-0.29c-0.14,0-0.28,0.04-0.42,0.12c-0.13,0.08-0.24,0.17-0.34,0.28
		l-1.08,1.48c0.3,0.39,0.65,0.75,1.05,1.06c0.4,0.32,0.84,0.59,1.31,0.81c0.47,0.22,0.98,0.4,1.52,0.52
		c0.54,0.12,1.1,0.18,1.67,0.18c1.08,0,2.06-0.18,2.93-0.55c0.87-0.37,1.61-0.87,2.21-1.5c0.6-0.63,1.07-1.37,1.4-2.22
		c0.33-0.85,0.49-1.74,0.49-2.69c0-0.68-0.11-1.27-0.32-1.75c-0.21-0.48-0.5-0.89-0.85-1.24c-0.35-0.34-0.76-0.63-1.2-0.86
		c-0.45-0.23-0.91-0.44-1.38-0.62c-0.47-0.18-0.93-0.36-1.38-0.53c-0.45-0.17-0.85-0.37-1.2-0.59c-0.35-0.22-0.64-0.48-0.85-0.77
		c-0.21-0.3-0.32-0.67-0.32-1.11c0-0.44,0.07-0.84,0.22-1.22c0.15-0.38,0.36-0.7,0.65-0.98c0.29-0.28,0.64-0.5,1.06-0.66
		c0.42-0.16,0.9-0.25,1.43-0.25c0.54,0,0.99,0.07,1.37,0.23c0.37,0.15,0.69,0.32,0.95,0.5c0.26,0.18,0.49,0.35,0.68,0.5
		c0.19,0.15,0.36,0.22,0.53,0.22c0.15,0,0.29-0.04,0.4-0.12c0.11-0.08,0.22-0.19,0.34-0.35L610.69,389.98z M588.58,404.14
		c-0.16-0.18-0.34-0.27-0.53-0.27c-0.25,0-0.48,0.09-0.7,0.26c-0.22,0.17-0.48,0.36-0.78,0.57c-0.3,0.2-0.65,0.39-1.07,0.57
		s-0.94,0.26-1.57,0.26c-1,0-1.75-0.29-2.25-0.88c-0.5-0.59-0.75-1.46-0.75-2.61v-0.18c0-0.06,0.01-0.12,0.01-0.17
		c1.76-0.18,3.2-0.42,4.32-0.72c1.12-0.3,2.01-0.66,2.66-1.07c0.65-0.41,1.09-0.87,1.34-1.38c0.25-0.51,0.38-1.07,0.38-1.68
		c0-0.37-0.09-0.76-0.26-1.15c-0.17-0.39-0.43-0.75-0.79-1.07c-0.35-0.32-0.79-0.59-1.32-0.79c-0.53-0.2-1.15-0.31-1.87-0.31
		c-0.75,0-1.44,0.11-2.1,0.33c-0.65,0.22-1.25,0.53-1.79,0.92c-0.54,0.39-1.02,0.86-1.45,1.4c-0.42,0.54-0.78,1.13-1.08,1.77
		c-0.3,0.64-0.52,1.31-0.68,2.01c-0.16,0.7-0.23,1.42-0.23,2.15c0,0.87,0.12,1.66,0.37,2.37c0.24,0.7,0.6,1.31,1.06,1.8
		c0.46,0.5,1.01,0.88,1.66,1.15c0.65,0.27,1.37,0.41,2.18,0.41c0.61,0,1.17-0.06,1.69-0.16c0.52-0.11,1.01-0.28,1.49-0.51
		s0.94-0.52,1.39-0.87c0.46-0.35,0.92-0.77,1.39-1.25L588.58,404.14z M586.06,395.71c0.23,0.09,0.41,0.19,0.55,0.32
		c0.14,0.13,0.24,0.27,0.31,0.44c0.06,0.16,0.1,0.32,0.1,0.46c0,0.3-0.07,0.58-0.21,0.85c-0.14,0.27-0.41,0.52-0.82,0.76
		c-0.41,0.24-1,0.45-1.76,0.65c-0.77,0.2-1.78,0.38-3.03,0.55c0.14-0.6,0.33-1.16,0.58-1.67c0.25-0.51,0.55-0.95,0.89-1.32
		c0.34-0.37,0.73-0.66,1.16-0.87c0.43-0.21,0.9-0.31,1.41-0.31C585.56,395.59,585.83,395.63,586.06,395.71 M576.41,405.14l-0.74-0.9
		c-0.16-0.18-0.34-0.27-0.53-0.27c-0.21,0-0.41,0.08-0.6,0.25c-0.19,0.16-0.42,0.34-0.68,0.53c-0.26,0.19-0.58,0.37-0.95,0.53
		c-0.37,0.16-0.84,0.25-1.41,0.25c-0.87,0-1.55-0.3-2.03-0.92c-0.48-0.61-0.72-1.45-0.72-2.52c0-0.9,0.11-1.73,0.34-2.5
		c0.23-0.76,0.53-1.42,0.92-1.97c0.39-0.55,0.84-0.98,1.35-1.29c0.51-0.31,1.06-0.46,1.63-0.46c0.43,0,0.78,0.05,1.05,0.16
		c0.27,0.1,0.5,0.22,0.68,0.34c0.18,0.12,0.34,0.23,0.46,0.33c0.13,0.1,0.26,0.15,0.4,0.15c0.11,0,0.21-0.03,0.3-0.09
		c0.09-0.06,0.17-0.12,0.25-0.2l0.93-1.12c-0.48-0.64-1.04-1.12-1.67-1.45c-0.63-0.33-1.41-0.49-2.34-0.49
		c-0.7,0-1.36,0.11-1.99,0.32c-0.63,0.21-1.21,0.51-1.75,0.89c-0.54,0.38-1.02,0.84-1.45,1.37c-0.43,0.53-0.8,1.12-1.1,1.75
		c-0.3,0.63-0.53,1.31-0.7,2.03s-0.25,1.45-0.25,2.2c0,0.86,0.11,1.65,0.34,2.36c0.23,0.71,0.55,1.32,0.98,1.82
		c0.43,0.51,0.96,0.9,1.58,1.17c0.63,0.28,1.35,0.42,2.16,0.42c0.55,0,1.07-0.04,1.53-0.13s0.92-0.23,1.35-0.44
		c0.43-0.21,0.86-0.48,1.29-0.82C575.5,406.09,575.94,405.66,576.41,405.14 M555.18,394.66c0-0.34-0.09-0.59-0.25-0.74
		c-0.17-0.16-0.41-0.24-0.73-0.24h-1.47l-1.67,13.95h2.92l0.77-6.93c0.22-0.72,0.5-1.37,0.83-1.96c0.34-0.59,0.7-1.09,1.09-1.5
		c0.39-0.41,0.79-0.74,1.21-0.96c0.42-0.23,0.84-0.34,1.24-0.34c0.63,0,1.06,0.23,1.3,0.68c0.24,0.45,0.3,1.17,0.17,2.16l-1.05,8.86
		h2.92l1.05-8.86c0.1-0.85,0.1-1.6-0.01-2.25c-0.11-0.65-0.31-1.21-0.6-1.66c-0.29-0.45-0.66-0.79-1.12-1.02s-0.97-0.35-1.56-0.35
		c-0.95,0-1.86,0.28-2.76,0.84c-0.89,0.56-1.7,1.4-2.42,2.53L555.18,394.66z M545.07,406.63c0,0.28,0.07,0.52,0.21,0.71
		c0.14,0.19,0.39,0.29,0.76,0.29h1.54l1.66-13.49c-0.57-0.24-1.16-0.4-1.76-0.5c-0.6-0.1-1.21-0.14-1.82-0.14
		c-0.85,0-1.65,0.12-2.42,0.35c-0.77,0.23-1.49,0.56-2.15,0.98c-0.66,0.42-1.27,0.92-1.8,1.5s-1,1.22-1.38,1.92
		c-0.38,0.7-0.68,1.44-0.89,2.23s-0.31,1.59-0.31,2.42c0,0.81,0.09,1.52,0.28,2.14c0.19,0.61,0.44,1.13,0.77,1.55
		c0.33,0.42,0.72,0.73,1.17,0.94c0.46,0.21,0.95,0.31,1.49,0.31c0.48,0,0.95-0.08,1.39-0.25s0.87-0.4,1.27-0.7
		c0.4-0.3,0.78-0.66,1.14-1.09c0.36-0.42,0.7-0.9,1.02-1.43L545.07,406.63z M545.61,400.16c-0.22,0.75-0.48,1.44-0.78,2.07
		s-0.63,1.19-0.98,1.66c-0.35,0.47-0.72,0.84-1.11,1.11c-0.39,0.27-0.79,0.4-1.2,0.4c-0.61,0-1.08-0.25-1.41-0.74
		c-0.33-0.5-0.5-1.26-0.5-2.3c0-0.9,0.15-1.76,0.44-2.57c0.29-0.81,0.69-1.53,1.19-2.15c0.51-0.62,1.1-1.11,1.79-1.47
		c0.69-0.36,1.42-0.55,2.2-0.55c0.15,0,0.31,0,0.46,0.01c0.15,0.01,0.3,0.02,0.46,0.04L545.61,400.16z M526.17,394.66
		c0-0.34-0.08-0.59-0.25-0.74c-0.17-0.16-0.41-0.24-0.73-0.24h-1.47l-1.67,13.95h2.92l0.76-6.93c0.22-0.72,0.5-1.37,0.83-1.96
		c0.34-0.59,0.7-1.09,1.09-1.5c0.39-0.41,0.79-0.74,1.21-0.96c0.42-0.23,0.84-0.34,1.24-0.34c0.63,0,1.06,0.23,1.3,0.68
		c0.24,0.45,0.3,1.17,0.17,2.16l-1.05,8.86h2.92l1.05-8.86c0.1-0.85,0.1-1.6-0.01-2.25c-0.11-0.65-0.31-1.21-0.6-1.66
		c-0.29-0.45-0.67-0.79-1.12-1.02c-0.46-0.23-0.97-0.35-1.56-0.35c-0.95,0-1.86,0.28-2.76,0.84c-0.89,0.56-1.7,1.4-2.42,2.53
		L526.17,394.66z M519.23,404.14c-0.16-0.18-0.34-0.27-0.53-0.27c-0.25,0-0.48,0.09-0.7,0.26c-0.22,0.17-0.48,0.36-0.78,0.57
		c-0.3,0.2-0.65,0.39-1.07,0.57c-0.42,0.17-0.94,0.26-1.57,0.26c-1,0-1.75-0.29-2.25-0.88c-0.5-0.59-0.75-1.46-0.75-2.61v-0.18
		c0-0.06,0-0.12,0.01-0.17c1.76-0.18,3.2-0.42,4.32-0.72c1.12-0.3,2.01-0.66,2.65-1.07c0.65-0.41,1.09-0.87,1.35-1.38
		c0.25-0.51,0.38-1.07,0.38-1.68c0-0.37-0.09-0.76-0.26-1.15c-0.17-0.39-0.43-0.75-0.78-1.07c-0.35-0.32-0.79-0.59-1.32-0.79
		c-0.53-0.2-1.15-0.31-1.87-0.31c-0.75,0-1.45,0.11-2.1,0.33c-0.65,0.22-1.25,0.53-1.79,0.92c-0.54,0.39-1.02,0.86-1.45,1.4
		c-0.42,0.54-0.78,1.13-1.08,1.77c-0.3,0.64-0.52,1.31-0.68,2.01c-0.15,0.7-0.23,1.42-0.23,2.15c0,0.87,0.12,1.66,0.37,2.37
		c0.24,0.7,0.6,1.31,1.06,1.8c0.46,0.5,1.01,0.88,1.66,1.15c0.65,0.27,1.37,0.41,2.18,0.41c0.61,0,1.17-0.06,1.69-0.16
		c0.52-0.11,1.01-0.28,1.49-0.51c0.47-0.23,0.94-0.52,1.39-0.87c0.45-0.35,0.92-0.77,1.39-1.25L519.23,404.14z M516.7,395.71
		c0.23,0.09,0.41,0.19,0.55,0.32c0.14,0.13,0.24,0.27,0.31,0.44c0.06,0.16,0.09,0.32,0.09,0.46c0,0.3-0.07,0.58-0.2,0.85
		c-0.14,0.27-0.41,0.52-0.82,0.76c-0.41,0.24-1,0.45-1.76,0.65c-0.76,0.2-1.77,0.38-3.03,0.55c0.14-0.6,0.33-1.16,0.58-1.67
		c0.25-0.51,0.55-0.95,0.89-1.32c0.34-0.37,0.73-0.66,1.16-0.87c0.43-0.21,0.9-0.31,1.41-0.31
		C516.2,395.59,516.47,395.63,516.7,395.71 M501.03,407.07c0.55,0.51,1.29,0.77,2.23,0.77c0.6,0,1.19-0.11,1.78-0.32
		c0.59-0.21,1.12-0.52,1.6-0.92l-0.63-1.43c-0.05-0.1-0.09-0.17-0.14-0.21c-0.04-0.04-0.12-0.06-0.22-0.06
		c-0.07,0-0.15,0.03-0.23,0.09c-0.08,0.06-0.18,0.12-0.3,0.19c-0.12,0.07-0.26,0.13-0.41,0.19s-0.34,0.09-0.56,0.09
		c-0.34,0-0.6-0.11-0.79-0.31c-0.19-0.21-0.29-0.51-0.29-0.91c0-0.03,0-0.07,0.01-0.12c0-0.05,0.01-0.14,0.03-0.27
		c0.01-0.13,0.03-0.31,0.06-0.53c0.03-0.22,0.06-0.52,0.11-0.89l0.78-6.4h3.52l0.24-2.12h-3.51l0.57-4.57h-1.56
		c-0.16,0-0.3,0.05-0.42,0.14c-0.11,0.1-0.2,0.22-0.25,0.38l-1.09,4.03l-2.12,0.33l-0.14,1.19c-0.03,0.21,0.01,0.37,0.1,0.47
		c0.09,0.11,0.21,0.16,0.37,0.16h1.41l-0.8,6.57c-0.05,0.43-0.1,0.78-0.12,1.05c-0.03,0.27-0.05,0.49-0.06,0.65
		c-0.01,0.16-0.02,0.29-0.03,0.38c0,0.09-0.01,0.16-0.01,0.22C500.2,405.83,500.49,406.56,501.03,407.07 M488.58,394.66
		c0-0.34-0.08-0.59-0.25-0.74c-0.17-0.16-0.41-0.24-0.73-0.24h-1.47l-1.67,13.95h2.92l0.77-6.93c0.22-0.72,0.5-1.37,0.83-1.96
		c0.34-0.59,0.7-1.09,1.08-1.5c0.39-0.41,0.79-0.74,1.21-0.96c0.42-0.23,0.83-0.34,1.24-0.34c0.63,0,1.06,0.23,1.3,0.68
		c0.24,0.45,0.3,1.17,0.17,2.16l-1.05,8.86h2.92l1.05-8.86c0.1-0.85,0.1-1.6-0.01-2.25s-0.31-1.21-0.6-1.66
		c-0.29-0.45-0.67-0.79-1.12-1.02s-0.97-0.35-1.56-0.35c-0.95,0-1.86,0.28-2.76,0.84s-1.7,1.4-2.42,2.53L488.58,394.66z
		 M483.22,388.73c-0.1-0.24-0.25-0.44-0.42-0.62c-0.18-0.18-0.38-0.32-0.61-0.42c-0.23-0.1-0.47-0.16-0.72-0.16
		c-0.24,0-0.47,0.05-0.7,0.16c-0.23,0.11-0.43,0.25-0.6,0.42c-0.17,0.18-0.31,0.39-0.42,0.63c-0.11,0.24-0.16,0.49-0.16,0.76
		c0,0.26,0.05,0.51,0.16,0.75c0.1,0.24,0.24,0.44,0.41,0.62c0.17,0.18,0.36,0.32,0.59,0.42c0.22,0.1,0.46,0.16,0.7,0.16
		c0.25,0,0.48-0.05,0.71-0.16c0.23-0.11,0.43-0.25,0.61-0.42c0.18-0.18,0.33-0.39,0.44-0.62c0.11-0.24,0.16-0.49,0.16-0.75
		C483.38,389.22,483.33,388.97,483.22,388.73 M479.61,393.7l-1.67,13.92h2.88l1.68-13.92H479.61z M471.83,406.63
		c0,0.28,0.07,0.52,0.21,0.71c0.14,0.19,0.39,0.29,0.76,0.29h1.54l1.67-13.49c-0.57-0.24-1.16-0.4-1.76-0.5
		c-0.6-0.1-1.21-0.14-1.82-0.14c-0.85,0-1.65,0.12-2.42,0.35c-0.77,0.23-1.49,0.56-2.15,0.98c-0.66,0.42-1.27,0.92-1.8,1.5
		c-0.54,0.58-1,1.22-1.38,1.92c-0.38,0.7-0.68,1.44-0.89,2.23c-0.21,0.79-0.31,1.59-0.31,2.42c0,0.81,0.09,1.52,0.28,2.14
		c0.19,0.61,0.44,1.13,0.77,1.55c0.33,0.42,0.72,0.73,1.17,0.94c0.45,0.21,0.95,0.31,1.49,0.31c0.48,0,0.95-0.08,1.39-0.25
		c0.44-0.16,0.87-0.4,1.27-0.7s0.78-0.66,1.14-1.09c0.36-0.42,0.7-0.9,1.02-1.43L471.83,406.63z M472.38,400.16
		c-0.22,0.75-0.48,1.44-0.78,2.07c-0.3,0.64-0.62,1.19-0.98,1.66c-0.35,0.47-0.72,0.84-1.11,1.11c-0.39,0.27-0.79,0.4-1.2,0.4
		c-0.61,0-1.08-0.25-1.41-0.74s-0.5-1.26-0.5-2.3c0-0.9,0.15-1.76,0.44-2.57c0.29-0.81,0.69-1.53,1.2-2.15
		c0.51-0.62,1.1-1.11,1.79-1.47s1.42-0.55,2.2-0.55c0.15,0,0.31,0,0.46,0.01c0.15,0.01,0.3,0.02,0.46,0.04L472.38,400.16z
		 M460.07,387.97c-0.26,0-0.47,0.03-0.61,0.1c-0.14,0.06-0.31,0.2-0.5,0.41l-7.25,11.74c-0.13,0.21-0.25,0.42-0.36,0.64
		c-0.11,0.22-0.21,0.44-0.31,0.67c-0.1-0.45-0.22-0.88-0.36-1.31l-4.39-11.74c-0.07-0.11-0.14-0.2-0.2-0.26
		c-0.06-0.06-0.13-0.11-0.2-0.15c-0.07-0.04-0.15-0.06-0.25-0.08c-0.09-0.01-0.2-0.02-0.34-0.02H443l-2.42,19.66h2.7l1.67-13.62
		c0.02-0.21,0.03-0.44,0.05-0.68c0.01-0.25,0.03-0.5,0.03-0.77l4.37,11.75c0.08,0.23,0.21,0.4,0.4,0.51
		c0.18,0.11,0.39,0.17,0.63,0.17h0.42c0.51,0,0.9-0.23,1.17-0.68l7.19-11.75c-0.06,0.26-0.12,0.53-0.17,0.79
		c-0.05,0.26-0.09,0.5-0.12,0.71l-1.67,13.57h2.69l2.42-19.66H460.07z M423.13,394.66c0-0.34-0.08-0.59-0.25-0.74
		c-0.17-0.16-0.41-0.24-0.73-0.24h-1.47l-1.67,13.95h2.92l0.76-6.93c0.22-0.72,0.5-1.37,0.83-1.96c0.34-0.59,0.7-1.09,1.09-1.5
		c0.39-0.41,0.79-0.74,1.21-0.96c0.42-0.23,0.83-0.34,1.23-0.34c0.63,0,1.06,0.23,1.3,0.68c0.24,0.45,0.3,1.17,0.17,2.16l-1.05,8.86
		h2.92l1.05-8.86c0.1-0.85,0.1-1.6-0.01-2.25c-0.11-0.65-0.31-1.21-0.6-1.66c-0.29-0.45-0.66-0.79-1.12-1.02
		c-0.46-0.23-0.97-0.35-1.56-0.35c-0.95,0-1.87,0.28-2.76,0.84c-0.89,0.56-1.7,1.4-2.42,2.53L423.13,394.66z M417.77,388.73
		c-0.11-0.24-0.25-0.44-0.42-0.62c-0.18-0.18-0.38-0.32-0.61-0.42c-0.23-0.1-0.47-0.16-0.72-0.16c-0.24,0-0.47,0.05-0.7,0.16
		c-0.23,0.11-0.43,0.25-0.6,0.42c-0.17,0.18-0.31,0.39-0.42,0.63c-0.1,0.24-0.16,0.49-0.16,0.76c0,0.26,0.05,0.51,0.16,0.75
		c0.1,0.24,0.24,0.44,0.41,0.62c0.17,0.18,0.36,0.32,0.59,0.42c0.22,0.1,0.46,0.16,0.7,0.16s0.48-0.05,0.71-0.16
		c0.23-0.11,0.43-0.25,0.61-0.42c0.18-0.18,0.33-0.39,0.44-0.62c0.11-0.24,0.16-0.49,0.16-0.75
		C417.93,389.22,417.88,388.97,417.77,388.73 M414.16,393.7l-1.67,13.92h2.88l1.68-13.92H414.16z M406.38,406.63
		c0,0.28,0.07,0.52,0.2,0.71c0.14,0.19,0.39,0.29,0.76,0.29h1.54l1.67-13.49c-0.57-0.24-1.16-0.4-1.76-0.5
		c-0.6-0.1-1.21-0.14-1.82-0.14c-0.85,0-1.65,0.12-2.42,0.35c-0.77,0.23-1.49,0.56-2.15,0.98c-0.66,0.42-1.26,0.92-1.8,1.5
		c-0.54,0.58-1,1.22-1.38,1.92c-0.38,0.7-0.68,1.44-0.89,2.23s-0.31,1.59-0.31,2.42c0,0.81,0.09,1.52,0.28,2.14
		c0.19,0.61,0.44,1.13,0.77,1.55c0.33,0.42,0.72,0.73,1.17,0.94c0.45,0.21,0.95,0.31,1.49,0.31c0.48,0,0.95-0.08,1.39-0.25
		c0.45-0.16,0.87-0.4,1.27-0.7c0.4-0.3,0.78-0.66,1.14-1.09c0.36-0.42,0.7-0.9,1.02-1.43L406.38,406.63z M406.93,400.16
		c-0.22,0.75-0.48,1.44-0.78,2.07c-0.3,0.64-0.63,1.19-0.98,1.66c-0.35,0.47-0.72,0.84-1.11,1.11c-0.39,0.27-0.79,0.4-1.2,0.4
		c-0.61,0-1.08-0.25-1.41-0.74c-0.33-0.5-0.5-1.26-0.5-2.3c0-0.9,0.15-1.76,0.44-2.57c0.29-0.81,0.69-1.53,1.19-2.15
		c0.51-0.62,1.1-1.11,1.79-1.47c0.69-0.36,1.42-0.55,2.2-0.55c0.15,0,0.31,0,0.46,0.01c0.15,0.01,0.3,0.02,0.46,0.04L406.93,400.16z
		 M388.73,387.42h-2.92l-2.44,20.2h2.92l0.87-7.26c0.23-0.67,0.51-1.29,0.84-1.84c0.33-0.55,0.68-1.02,1.06-1.41
		c0.37-0.39,0.76-0.69,1.17-0.9c0.4-0.21,0.8-0.32,1.18-0.32c0.64,0,1.07,0.23,1.31,0.69c0.24,0.46,0.29,1.18,0.16,2.18l-1.04,8.86
		h2.92l1.04-8.86c0.11-0.85,0.11-1.6,0-2.25c-0.11-0.65-0.31-1.21-0.6-1.66c-0.29-0.45-0.67-0.79-1.13-1.02
		c-0.46-0.23-0.98-0.35-1.58-0.35c-0.87,0-1.72,0.24-2.55,0.73c-0.83,0.49-1.59,1.21-2.29,2.18L388.73,387.42z M372.88,404.77
		c-0.61-0.28-1.13-0.69-1.56-1.21c-0.44-0.53-0.78-1.17-1.02-1.94c-0.25-0.76-0.37-1.62-0.37-2.58c0-1.32,0.18-2.51,0.55-3.58
		c0.36-1.07,0.86-1.97,1.49-2.72c0.63-0.75,1.38-1.32,2.24-1.73c0.86-0.41,1.8-0.61,2.8-0.61c0.5,0,0.94,0.04,1.3,0.12
		c0.37,0.08,0.69,0.18,0.96,0.31c0.27,0.12,0.51,0.26,0.7,0.4c0.2,0.14,0.37,0.27,0.51,0.4c0.15,0.12,0.28,0.23,0.4,0.31
		c0.12,0.08,0.24,0.12,0.36,0.12c0.16,0,0.3-0.04,0.41-0.11c0.11-0.07,0.2-0.16,0.29-0.26l1.05-1.28c-0.32-0.4-0.67-0.76-1.05-1.09
		c-0.38-0.33-0.81-0.61-1.28-0.84c-0.47-0.23-0.99-0.41-1.57-0.54c-0.58-0.13-1.22-0.19-1.93-0.19c-1.45,0-2.8,0.28-4.06,0.85
		c-1.26,0.56-2.36,1.36-3.3,2.38c-0.94,1.02-1.67,2.24-2.21,3.65c-0.54,1.42-0.81,2.97-0.81,4.68c0,1.24,0.17,2.38,0.51,3.43
		c0.34,1.05,0.83,1.95,1.48,2.7c0.65,0.76,1.44,1.35,2.38,1.77c0.94,0.43,2,0.64,3.19,0.64c1.48,0,2.8-0.26,3.95-0.78
		c1.15-0.52,2.14-1.26,2.99-2.21l-1.08-1.35c-0.04-0.05-0.09-0.09-0.15-0.13c-0.06-0.04-0.15-0.06-0.25-0.06
		c-0.12,0-0.24,0.04-0.37,0.14c-0.13,0.09-0.28,0.21-0.45,0.35c-0.17,0.14-0.38,0.29-0.61,0.46c-0.23,0.16-0.51,0.32-0.84,0.46
		c-0.33,0.14-0.71,0.26-1.15,0.35c-0.44,0.09-0.95,0.14-1.52,0.14C374.15,405.19,373.48,405.05,372.88,404.77 M354.94,394.66
		c0-0.34-0.08-0.59-0.25-0.74c-0.17-0.16-0.41-0.24-0.73-0.24h-1.47l-1.68,13.95h2.87l0.74-6.21c0.53-2.11,1.23-3.55,2.1-4.31
		c0.87-0.76,1.88-0.91,3.04-0.44l0.53-2.81c-0.48-0.21-0.96-0.29-1.44-0.23s-0.94,0.23-1.39,0.53c-0.45,0.3-0.88,0.71-1.3,1.24
		c-0.41,0.53-0.8,1.16-1.15,1.9L354.94,394.66z M343.67,407.52c0.62-0.21,1.19-0.49,1.73-0.86c0.53-0.37,1.02-0.81,1.46-1.33
		c0.44-0.52,0.82-1.09,1.13-1.73c0.31-0.63,0.55-1.31,0.72-2.04c0.17-0.73,0.26-1.48,0.26-2.27c0-0.92-0.13-1.74-0.4-2.46
		c-0.26-0.72-0.63-1.33-1.09-1.83c-0.46-0.5-1.02-0.87-1.67-1.13c-0.65-0.26-1.35-0.39-2.12-0.39c-1,0-1.94,0.22-2.82,0.66
		c-0.88,0.44-1.64,1.05-2.3,1.82s-1.17,1.67-1.55,2.71c-0.38,1.04-0.57,2.15-0.57,3.34c0,0.92,0.13,1.74,0.4,2.46
		c0.26,0.72,0.63,1.33,1.1,1.83c0.47,0.5,1.03,0.87,1.67,1.13c0.65,0.26,1.35,0.39,2.12,0.39
		C342.41,407.83,343.06,407.73,343.67,407.52 M339.4,401.99c0-0.83,0.1-1.62,0.29-2.38c0.19-0.76,0.46-1.41,0.8-1.98
		c0.35-0.56,0.77-1.01,1.26-1.35c0.5-0.34,1.05-0.5,1.67-0.5c0.86,0,1.52,0.29,1.96,0.87c0.44,0.58,0.66,1.47,0.66,2.67
		c0,0.82-0.1,1.6-0.29,2.35c-0.19,0.75-0.46,1.41-0.81,1.99c-0.35,0.57-0.78,1.03-1.28,1.37c-0.5,0.34-1.06,0.51-1.67,0.51
		C340.27,405.54,339.4,404.35,339.4,401.99 M334.23,393.7c-0.16,0-0.32,0.05-0.47,0.16c-0.15,0.1-0.27,0.24-0.35,0.4l-3.89,7.9
		c-0.1,0.22-0.2,0.43-0.29,0.65c-0.1,0.21-0.19,0.43-0.28,0.65c-0.02-0.21-0.04-0.42-0.08-0.64c-0.03-0.22-0.07-0.43-0.12-0.64
		l-1.97-7.9c-0.04-0.15-0.11-0.29-0.22-0.4c-0.11-0.11-0.28-0.17-0.51-0.17h-2.43l3.55,12.95l-3.06,5.6h2.17
		c0.43,0,0.75-0.21,0.97-0.64l9.3-17.91H334.23z M320.92,404.14c-0.16-0.18-0.34-0.27-0.53-0.27c-0.25,0-0.48,0.09-0.7,0.26
		c-0.22,0.17-0.48,0.36-0.78,0.57c-0.3,0.2-0.65,0.39-1.07,0.57c-0.42,0.17-0.94,0.26-1.57,0.26c-1,0-1.75-0.29-2.25-0.88
		c-0.5-0.59-0.75-1.46-0.75-2.61v-0.18c0-0.06,0.01-0.12,0.01-0.17c1.76-0.18,3.2-0.42,4.32-0.72c1.12-0.3,2.01-0.66,2.65-1.07
		c0.65-0.41,1.09-0.87,1.35-1.38c0.25-0.51,0.38-1.07,0.38-1.68c0-0.37-0.09-0.76-0.26-1.15c-0.17-0.39-0.43-0.75-0.79-1.07
		c-0.35-0.32-0.79-0.59-1.32-0.79c-0.53-0.2-1.15-0.31-1.87-0.31c-0.75,0-1.44,0.11-2.1,0.33c-0.65,0.22-1.25,0.53-1.79,0.92
		c-0.54,0.39-1.02,0.86-1.45,1.4c-0.42,0.54-0.78,1.13-1.08,1.77c-0.3,0.64-0.52,1.31-0.68,2.01c-0.15,0.7-0.23,1.42-0.23,2.15
		c0,0.87,0.12,1.66,0.37,2.37c0.25,0.7,0.6,1.31,1.06,1.8c0.46,0.5,1.01,0.88,1.66,1.15c0.65,0.27,1.37,0.41,2.18,0.41
		c0.61,0,1.17-0.06,1.69-0.16c0.52-0.11,1.01-0.28,1.49-0.51c0.47-0.23,0.94-0.52,1.39-0.87c0.45-0.35,0.92-0.77,1.39-1.25
		L320.92,404.14z M318.4,395.71c0.23,0.09,0.41,0.19,0.55,0.32c0.14,0.13,0.24,0.27,0.31,0.44c0.06,0.16,0.1,0.32,0.1,0.46
		c0,0.3-0.07,0.58-0.21,0.85c-0.14,0.27-0.41,0.52-0.82,0.76c-0.41,0.24-1,0.45-1.76,0.65c-0.77,0.2-1.77,0.38-3.03,0.55
		c0.14-0.6,0.33-1.16,0.58-1.67c0.25-0.51,0.55-0.95,0.89-1.32c0.34-0.37,0.73-0.66,1.16-0.87c0.43-0.21,0.9-0.31,1.41-0.31
		C317.89,395.59,318.17,395.63,318.4,395.71 M308.17,393.7c-0.18,0-0.35,0.06-0.5,0.16c-0.15,0.11-0.26,0.25-0.33,0.41l-3.78,8.11
		c-0.17,0.42-0.33,0.82-0.46,1.22c-0.14,0.39-0.27,0.78-0.4,1.17c-0.03-0.4-0.06-0.8-0.1-1.19c-0.04-0.39-0.09-0.79-0.16-1.2
		l-1.75-8.11c-0.03-0.15-0.11-0.29-0.23-0.4c-0.13-0.11-0.3-0.17-0.51-0.17h-2.39l3.54,13.92h2.46l6.91-13.92H308.17z
		 M287.08,394.66c0-0.34-0.08-0.59-0.25-0.74c-0.17-0.16-0.41-0.24-0.73-0.24h-1.47l-1.67,13.95h2.92l0.76-6.93
		c0.22-0.72,0.5-1.37,0.83-1.96c0.34-0.59,0.7-1.09,1.09-1.5c0.39-0.41,0.79-0.74,1.21-0.96c0.42-0.23,0.83-0.34,1.24-0.34
		c0.63,0,1.06,0.23,1.3,0.68c0.24,0.45,0.3,1.17,0.17,2.16l-1.05,8.86h2.92l1.05-8.86c0.1-0.85,0.1-1.6-0.01-2.25
		c-0.11-0.65-0.31-1.21-0.6-1.66c-0.29-0.45-0.67-0.79-1.12-1.02c-0.46-0.23-0.97-0.35-1.56-0.35c-0.95,0-1.87,0.28-2.76,0.84
		s-1.7,1.4-2.42,2.53L287.08,394.66z M275.82,407.52c0.62-0.21,1.2-0.49,1.73-0.86c0.53-0.37,1.02-0.81,1.46-1.33
		c0.44-0.52,0.82-1.09,1.13-1.73c0.31-0.63,0.55-1.31,0.72-2.04c0.17-0.73,0.26-1.48,0.26-2.27c0-0.92-0.13-1.74-0.4-2.46
		c-0.26-0.72-0.63-1.33-1.09-1.83c-0.46-0.5-1.02-0.87-1.67-1.13c-0.65-0.26-1.35-0.39-2.12-0.39c-1,0-1.94,0.22-2.82,0.66
		c-0.88,0.44-1.64,1.05-2.3,1.82s-1.17,1.67-1.55,2.71c-0.38,1.04-0.57,2.15-0.57,3.34c0,0.92,0.13,1.74,0.4,2.46
		c0.26,0.72,0.63,1.33,1.1,1.83c0.47,0.5,1.03,0.87,1.67,1.13c0.65,0.26,1.35,0.39,2.12,0.39
		C274.56,407.83,275.2,407.73,275.82,407.52 M271.55,401.99c0-0.83,0.1-1.62,0.29-2.38c0.19-0.76,0.46-1.41,0.81-1.98
		c0.35-0.56,0.77-1.01,1.26-1.35c0.49-0.34,1.05-0.5,1.67-0.5c0.86,0,1.52,0.29,1.96,0.87c0.44,0.58,0.66,1.47,0.66,2.67
		c0,0.82-0.1,1.6-0.29,2.35c-0.19,0.75-0.46,1.41-0.81,1.99c-0.35,0.57-0.78,1.03-1.28,1.37c-0.5,0.34-1.05,0.51-1.67,0.51
		C272.42,405.54,271.55,404.35,271.55,401.99 M258.55,404.77c-0.6-0.28-1.13-0.69-1.56-1.21c-0.44-0.53-0.78-1.17-1.02-1.94
		c-0.25-0.76-0.37-1.62-0.37-2.58c0-1.32,0.18-2.51,0.55-3.58c0.36-1.07,0.86-1.97,1.49-2.72c0.63-0.75,1.38-1.32,2.25-1.73
		c0.86-0.41,1.8-0.61,2.8-0.61c0.5,0,0.94,0.04,1.3,0.12s0.69,0.18,0.96,0.31c0.27,0.12,0.51,0.26,0.7,0.4
		c0.2,0.14,0.37,0.27,0.51,0.4s0.28,0.23,0.4,0.31c0.12,0.08,0.24,0.12,0.36,0.12c0.16,0,0.3-0.04,0.41-0.11
		c0.11-0.07,0.2-0.16,0.29-0.26l1.05-1.28c-0.32-0.4-0.67-0.76-1.05-1.09c-0.38-0.33-0.81-0.61-1.28-0.84
		c-0.47-0.23-0.99-0.41-1.57-0.54c-0.58-0.13-1.22-0.19-1.93-0.19c-1.45,0-2.8,0.28-4.06,0.85c-1.26,0.56-2.36,1.36-3.3,2.38
		c-0.94,1.02-1.67,2.24-2.21,3.65c-0.54,1.42-0.8,2.97-0.8,4.68c0,1.24,0.17,2.38,0.51,3.43c0.34,1.05,0.83,1.95,1.48,2.7
		c0.65,0.76,1.44,1.35,2.38,1.77c0.94,0.43,2,0.64,3.19,0.64c1.48,0,2.8-0.26,3.94-0.78c1.15-0.52,2.14-1.26,2.99-2.21l-1.08-1.35
		c-0.04-0.05-0.09-0.09-0.15-0.13c-0.06-0.04-0.14-0.06-0.24-0.06c-0.12,0-0.24,0.04-0.37,0.14c-0.13,0.09-0.28,0.21-0.45,0.35
		c-0.17,0.14-0.38,0.29-0.61,0.46c-0.23,0.16-0.51,0.32-0.84,0.46c-0.33,0.14-0.71,0.26-1.15,0.35c-0.44,0.09-0.95,0.14-1.52,0.14
		C259.81,405.19,259.15,405.05,258.55,404.77 M240.52,400.21c-0.28,1.27-0.65,2.29-1.11,3.07c-0.46,0.78-0.98,1.34-1.56,1.67
		c-0.58,0.34-1.17,0.51-1.77,0.51c-0.4,0-0.78-0.09-1.13-0.28c-0.35-0.19-0.66-0.49-0.93-0.91c-0.26-0.42-0.47-0.97-0.63-1.65
		c-0.15-0.67-0.23-1.5-0.23-2.48c0-1.86,0.14-3.42,0.42-4.69c0.28-1.27,0.64-2.31,1.09-3.09c0.45-0.79,0.96-1.35,1.54-1.69
		s1.17-0.51,1.77-0.51c0.4,0,0.78,0.1,1.13,0.29s0.67,0.5,0.93,0.92c0.27,0.42,0.48,0.98,0.64,1.66c0.16,0.68,0.24,1.52,0.24,2.5
		C240.93,397.37,240.79,398.94,240.52,400.21 M243.42,392.19c-0.28-0.99-0.66-1.81-1.15-2.47c-0.49-0.66-1.08-1.15-1.76-1.48
		c-0.68-0.33-1.43-0.49-2.24-0.49c-1.09,0-2.12,0.25-3.09,0.75c-0.97,0.5-1.82,1.26-2.55,2.27c-0.73,1.01-1.3,2.28-1.73,3.81
		c-0.42,1.53-0.63,3.32-0.63,5.38c0,1.31,0.14,2.46,0.41,3.45c0.27,0.99,0.65,1.81,1.15,2.46c0.49,0.65,1.08,1.15,1.75,1.47
		c0.68,0.33,1.42,0.49,2.23,0.49c1.08,0,2.11-0.25,3.08-0.74c0.97-0.5,1.83-1.25,2.56-2.25c0.73-1.01,1.31-2.27,1.74-3.79
		c0.43-1.52,0.64-3.32,0.64-5.39C243.84,394.33,243.7,393.18,243.42,392.19 M223.08,406.68c0.1,0.23,0.23,0.43,0.4,0.6
		c0.17,0.17,0.37,0.31,0.6,0.4c0.23,0.1,0.48,0.14,0.75,0.14c0.26,0,0.51-0.05,0.74-0.14c0.23-0.1,0.43-0.23,0.6-0.4
		c0.17-0.17,0.3-0.37,0.4-0.6c0.1-0.23,0.15-0.48,0.15-0.75c0-0.26-0.05-0.51-0.15-0.74c-0.1-0.23-0.23-0.43-0.4-0.61
		c-0.17-0.17-0.37-0.31-0.6-0.41c-0.23-0.1-0.48-0.15-0.74-0.15c-0.27,0-0.52,0.05-0.75,0.15c-0.23,0.1-0.43,0.24-0.6,0.41
		c-0.17,0.17-0.31,0.38-0.4,0.61c-0.09,0.23-0.14,0.48-0.14,0.74C222.94,406.2,222.99,406.46,223.08,406.68 M218.4,400.39
		l1.53-12.42h-2.66l-10.2,12.57l0.11,1.45c0.02,0.18,0.09,0.33,0.23,0.46c0.13,0.12,0.29,0.18,0.48,0.18h7.78l-0.61,5h2.46l0.61-5
		h1.84c0.19,0,0.35-0.06,0.46-0.18c0.12-0.12,0.19-0.25,0.2-0.41l0.19-1.65H218.4z M210.06,400.39l7.06-8.93
		c-0.13,0.58-0.22,1.11-0.27,1.57l-0.9,7.36H210.06z M197.23,407.62l2.46-20.2h-2.89l-2.44,20.2H197.23z M188.31,406.63
		c0,0.28,0.07,0.52,0.21,0.71c0.14,0.19,0.39,0.29,0.76,0.29h1.54l1.66-13.49c-0.57-0.24-1.16-0.4-1.76-0.5
		c-0.6-0.1-1.21-0.14-1.82-0.14c-0.85,0-1.65,0.12-2.42,0.35c-0.77,0.23-1.49,0.56-2.15,0.98c-0.66,0.42-1.26,0.92-1.8,1.5
		s-1,1.22-1.38,1.92c-0.38,0.7-0.68,1.44-0.89,2.23c-0.21,0.79-0.31,1.59-0.31,2.42c0,0.81,0.09,1.52,0.28,2.14
		c0.19,0.61,0.44,1.13,0.77,1.55c0.33,0.42,0.72,0.73,1.17,0.94c0.45,0.21,0.95,0.31,1.49,0.31c0.48,0,0.95-0.08,1.39-0.25
		c0.45-0.16,0.87-0.4,1.27-0.7c0.4-0.3,0.78-0.66,1.14-1.09c0.36-0.42,0.7-0.9,1.02-1.43L188.31,406.63z M188.86,400.16
		c-0.22,0.75-0.48,1.44-0.78,2.07c-0.3,0.64-0.62,1.19-0.98,1.66c-0.35,0.47-0.72,0.84-1.11,1.11c-0.39,0.27-0.79,0.4-1.2,0.4
		c-0.61,0-1.08-0.25-1.41-0.74c-0.33-0.5-0.5-1.26-0.5-2.3c0-0.9,0.14-1.76,0.44-2.57c0.29-0.81,0.69-1.53,1.19-2.15
		c0.5-0.62,1.1-1.11,1.79-1.47s1.42-0.55,2.21-0.55c0.15,0,0.31,0,0.46,0.01c0.15,0.01,0.3,0.02,0.46,0.04L188.86,400.16z
		 M178.83,388.73c-0.1-0.24-0.25-0.44-0.42-0.62c-0.18-0.18-0.38-0.32-0.62-0.42c-0.23-0.1-0.47-0.16-0.72-0.16
		c-0.24,0-0.47,0.05-0.7,0.16c-0.23,0.11-0.43,0.25-0.6,0.42c-0.17,0.18-0.31,0.39-0.42,0.63c-0.1,0.24-0.16,0.49-0.16,0.76
		c0,0.26,0.05,0.51,0.16,0.75c0.1,0.24,0.24,0.44,0.41,0.62c0.17,0.18,0.36,0.32,0.59,0.42c0.22,0.1,0.46,0.16,0.7,0.16
		s0.48-0.05,0.71-0.16c0.23-0.11,0.43-0.25,0.61-0.42c0.18-0.18,0.33-0.39,0.44-0.62c0.11-0.24,0.16-0.49,0.16-0.75
		C178.99,389.22,178.94,388.97,178.83,388.73 M175.22,393.7l-1.67,13.92h2.88l1.68-13.92H175.22z M167.92,394.66
		c0-0.34-0.08-0.59-0.25-0.74c-0.17-0.16-0.41-0.24-0.73-0.24h-1.47l-1.68,13.95h2.87l0.74-6.21c0.53-2.11,1.23-3.55,2.1-4.31
		s1.88-0.91,3.04-0.44l0.53-2.81c-0.48-0.21-0.96-0.29-1.44-0.23s-0.94,0.23-1.39,0.53c-0.45,0.3-0.88,0.71-1.3,1.24
		c-0.41,0.53-0.8,1.16-1.15,1.9L167.92,394.66z M155.8,407.07c0.55,0.51,1.29,0.77,2.23,0.77c0.6,0,1.19-0.11,1.78-0.32
		c0.59-0.21,1.12-0.52,1.6-0.92l-0.63-1.43c-0.04-0.1-0.09-0.17-0.14-0.21c-0.05-0.04-0.12-0.06-0.22-0.06
		c-0.07,0-0.15,0.03-0.23,0.09c-0.08,0.06-0.18,0.12-0.3,0.19s-0.26,0.13-0.41,0.19c-0.15,0.06-0.34,0.09-0.56,0.09
		c-0.34,0-0.6-0.11-0.79-0.31c-0.19-0.21-0.29-0.51-0.29-0.91c0-0.03,0-0.07,0.01-0.12c0.01-0.05,0.01-0.14,0.03-0.27
		c0.01-0.13,0.03-0.31,0.06-0.53c0.03-0.22,0.06-0.52,0.11-0.89l0.78-6.4h3.52l0.25-2.12h-3.51l0.57-4.57h-1.56
		c-0.16,0-0.3,0.05-0.42,0.14c-0.11,0.1-0.2,0.22-0.25,0.38l-1.09,4.03l-2.12,0.33l-0.14,1.19c-0.03,0.21,0,0.37,0.1,0.47
		c0.09,0.11,0.21,0.16,0.37,0.16h1.41l-0.81,6.57c-0.05,0.43-0.1,0.78-0.12,1.05c-0.03,0.27-0.05,0.49-0.06,0.65
		c-0.01,0.16-0.02,0.29-0.03,0.38c-0.01,0.09-0.01,0.16-0.01,0.22C154.97,405.83,155.25,406.56,155.8,407.07 M152.55,395.08
		c-0.46-0.48-1.03-0.87-1.69-1.16c-0.66-0.29-1.42-0.44-2.29-0.44c-0.83,0-1.57,0.13-2.21,0.39c-0.65,0.26-1.19,0.62-1.64,1.05
		c-0.45,0.44-0.79,0.94-1.02,1.51s-0.36,1.15-0.36,1.75c0,0.51,0.08,0.94,0.24,1.29c0.16,0.35,0.37,0.65,0.64,0.89
		c0.26,0.25,0.56,0.45,0.89,0.61c0.33,0.16,0.67,0.31,1.02,0.44c0.35,0.13,0.69,0.25,1.02,0.37c0.33,0.12,0.63,0.26,0.89,0.42
		c0.26,0.16,0.48,0.35,0.64,0.57c0.16,0.22,0.24,0.49,0.24,0.82c0,0.29-0.06,0.57-0.18,0.83c-0.12,0.26-0.29,0.5-0.5,0.7
		c-0.22,0.2-0.49,0.36-0.81,0.47c-0.32,0.11-0.68,0.17-1.09,0.17c-0.49,0-0.89-0.06-1.2-0.18c-0.31-0.12-0.57-0.26-0.79-0.41
		c-0.21-0.15-0.4-0.29-0.55-0.41c-0.15-0.12-0.31-0.18-0.48-0.18c-0.17,0-0.32,0.04-0.44,0.12c-0.12,0.08-0.22,0.18-0.31,0.32
		l-0.72,1.12c0.43,0.49,1,0.9,1.71,1.22c0.71,0.32,1.51,0.48,2.4,0.48c0.85,0,1.61-0.13,2.3-0.4c0.69-0.27,1.27-0.63,1.76-1.08
		c0.49-0.45,0.86-0.98,1.12-1.58c0.26-0.6,0.39-1.23,0.39-1.88c0-0.49-0.08-0.91-0.24-1.27c-0.16-0.35-0.37-0.66-0.63-0.91
		c-0.26-0.25-0.56-0.46-0.9-0.64c-0.34-0.18-0.68-0.33-1.03-0.47c-0.35-0.14-0.69-0.27-1.03-0.4c-0.34-0.13-0.64-0.27-0.9-0.42
		c-0.26-0.15-0.48-0.33-0.64-0.54c-0.16-0.2-0.24-0.46-0.24-0.76c0-0.26,0.06-0.51,0.17-0.75c0.11-0.24,0.28-0.44,0.5-0.61
		c0.22-0.17,0.48-0.31,0.79-0.41c0.3-0.1,0.65-0.15,1.03-0.15c0.41,0,0.76,0.05,1.05,0.14c0.29,0.1,0.54,0.2,0.76,0.32
		c0.21,0.12,0.4,0.22,0.55,0.32c0.15,0.1,0.3,0.14,0.45,0.14c0.13,0,0.23-0.03,0.32-0.08c0.09-0.05,0.17-0.14,0.25-0.27
		L152.55,395.08z M137.93,393.7l-0.86,7.19c-0.23,0.68-0.51,1.3-0.83,1.86c-0.33,0.55-0.68,1.03-1.07,1.42
		c-0.38,0.39-0.78,0.69-1.19,0.91c-0.41,0.21-0.8,0.32-1.19,0.32c-0.63,0-1.06-0.23-1.3-0.68c-0.24-0.46-0.3-1.18-0.17-2.17
		l1.05-8.85h-2.92l-1.05,8.85c-0.1,0.85-0.1,1.6,0.01,2.25c0.11,0.66,0.31,1.21,0.6,1.66c0.29,0.45,0.66,0.79,1.12,1.02
		s0.97,0.35,1.56,0.35c0.93,0,1.83-0.27,2.71-0.81c0.88-0.54,1.67-1.35,2.38-2.44l-0.14,2.01c0,0.69,0.35,1.04,1.07,1.04h1.46
		l1.68-13.92H137.93z M124.04,387.42l-0.93,7.47c-0.38-0.45-0.84-0.79-1.38-1.04c-0.54-0.25-1.13-0.37-1.79-0.37
		c-0.63,0-1.23,0.12-1.81,0.36c-0.58,0.24-1.12,0.57-1.62,1c-0.5,0.42-0.96,0.92-1.37,1.5s-0.77,1.21-1.06,1.89
		c-0.29,0.68-0.52,1.4-0.68,2.16c-0.16,0.76-0.24,1.52-0.24,2.29c0,1.71,0.34,3,1.02,3.86c0.68,0.86,1.6,1.29,2.78,1.29
		c0.49,0,0.97-0.08,1.43-0.25c0.46-0.17,0.91-0.41,1.34-0.72c0.43-0.31,0.84-0.69,1.24-1.13c0.39-0.44,0.76-0.93,1.11-1.48
		l-0.18,2.38c0,0.28,0.07,0.52,0.2,0.71c0.13,0.19,0.38,0.29,0.76,0.29h1.54l2.5-20.2H124.04z M122.44,400.27
		c-0.24,0.75-0.52,1.44-0.85,2.07c-0.33,0.64-0.69,1.19-1.07,1.65c-0.38,0.46-0.78,0.83-1.2,1.09c-0.42,0.26-0.83,0.4-1.23,0.4
		c-0.64,0-1.13-0.26-1.49-0.78c-0.36-0.52-0.53-1.29-0.53-2.32c0-0.78,0.1-1.57,0.31-2.35c0.2-0.79,0.49-1.5,0.87-2.13
		c0.38-0.63,0.83-1.15,1.36-1.54s1.13-0.59,1.78-0.59c0.44,0,0.88,0.08,1.32,0.24c0.44,0.16,0.82,0.44,1.15,0.84L122.44,400.27z
		 M102.55,394.66c0-0.34-0.08-0.59-0.25-0.74c-0.17-0.16-0.41-0.24-0.73-0.24h-1.47l-1.67,13.95h2.92l0.76-6.93
		c0.22-0.72,0.5-1.37,0.83-1.96c0.34-0.59,0.7-1.09,1.08-1.5s0.79-0.74,1.22-0.96c0.42-0.23,0.83-0.34,1.24-0.34
		c0.63,0,1.06,0.23,1.3,0.68c0.24,0.45,0.3,1.17,0.17,2.16l-1.05,8.86h2.92l1.05-8.86c0.1-0.85,0.1-1.6-0.01-2.25
		s-0.31-1.21-0.6-1.66c-0.29-0.45-0.66-0.79-1.12-1.02s-0.97-0.35-1.56-0.35c-0.95,0-1.87,0.28-2.76,0.84
		c-0.89,0.56-1.7,1.4-2.42,2.53L102.55,394.66z M96.97,387.97h-3.09l-2.4,19.66h3.09L96.97,387.97z"/>
</g>
</svg>
